<svg xmlns="http://www.w3.org/2000/svg" xmlns:xlink="http://www.w3.org/1999/xlink" width="180" height="180" viewBox="0 0 180 180">
  <defs>
    <clipPath id="clip-path">
      <rect id="사각형_63" data-name="사각형 63" width="78.987" height="125.355" fill="none"/>
    </clipPath>
  </defs>
  <g id="scissors2" transform="translate(-870 -1358)">
    <g id="그룹_119" data-name="그룹 119" transform="translate(79 123)">
      <g id="그룹_115" data-name="그룹 115" transform="translate(841 1262)">
        <g id="그룹_110" data-name="그룹 110" transform="translate(0 0)" clip-path="url(#clip-path)">
          <path id="패스_70" data-name="패스 70" d="M36.159,64.449S20.995,65.2,21.848,78.316l-.312.028s-13.062,4.6-4.714,19.376c2.469,4.371,5.28,6.335,7.877,6.861.126.245.2.394.2.394a32.815,32.815,0,0,0,8.441,11.038l-.005.016c-3.247,9.588,11.56,21.859,27.041,19.6,20.346-2.967,17.58-19.189,17.58-19.189s-.048-.137-.13-.363a43.507,43.507,0,0,0,9-11.441c1.824-4.032,5.429-11.406-.684-22.665-2.051-3.778-5.206-5.552-8.907-6.416l-.064-1.116s.255-12.072,1.785-31.519c1-12.65,4.308-28.119-8.562-28.9C60.2,13.4,59.92,26.187,59.873,40.437c-.028,8.346.155,16.471-.635,23.018-.277,2.3-3.6,5.457-5.594-.089-2.02-5.612-6.127-23.774-9.142-38.786-2.75-13.691-23.313-11.625-18.239,6.251,4.658,16.413,9.114,30.483,9.9,33.618" transform="translate(-12.306 -12.272)" fill="#fff"/>
          <path id="패스_71" data-name="패스 71" d="M56.156,135.522a28,28,0,0,1-10.175-1.944,25.562,25.562,0,0,1-10.256-7.131c-3.011-3.614-4.042-7.469-2.905-10.856a33.2,33.2,0,0,1-8.427-11.034s-.072-.137-.188-.363c-2.962-.612-5.69-2.992-7.889-6.885-2.766-4.9-3.486-9.2-2.138-12.792,1.815-4.838,6.835-6.654,6.885-6.672l.014,0,.252-.023A11.652,11.652,0,0,1,24.1,69.009c3.917-4.393,10.736-5,11.526-5.059-.352-1.388-1.357-4.721-2.738-9.3C31,48.375,28.412,39.786,25.749,30.405c-1.552-5.469-.84-10.014,2.007-12.8a9.108,9.108,0,0,1,9.093-2.01,10.689,10.689,0,0,1,7.259,8.527c3.022,15.047,7.132,33.2,9.14,38.777.965,2.68,2.144,3.132,2.967,3.039,1.25-.141,2.355-1.667,2.508-2.936a162.875,162.875,0,0,0,.634-18.575c0-1.449,0-2.948,0-4.436a117.3,117.3,0,0,1,.653-14.722c.659-4.83,1.892-7.948,3.881-9.813a7.7,7.7,0,0,1,6.059-1.945,9.313,9.313,0,0,1,6.924,3.058C80.652,21,79.813,29.531,79,37.778c-.153,1.559-.312,3.17-.433,4.708C77.058,61.709,76.788,73.88,76.786,74l.061,1.065c4.231,1,7.061,3.043,8.9,6.436A24.611,24.611,0,0,1,89.1,95.324a25.092,25.092,0,0,1-2.537,8.62l-.126.277a43.455,43.455,0,0,1-8.987,11.433c.074.2.117.325.117.325a16.831,16.831,0,0,1-2.9,11.62c-2.969,4.084-7.925,6.658-14.731,7.65a26.225,26.225,0,0,1-3.78.272M21.1,77.962c-.211.077-5.041,1.9-6.8,6.6-1.334,3.556-.617,7.825,2.131,12.687,2.189,3.874,4.9,6.236,7.835,6.831l.029.006.014.026c.125.245.2.393.2.393a33.076,33.076,0,0,0,8.427,11.021l.031.027-.017.054c-1.136,3.353-.114,7.175,2.875,10.763,4.391,5.271,13.8,10.261,24.1,8.76,6.772-.987,11.7-3.545,14.649-7.6a16.7,16.7,0,0,0,2.88-11.516s-.048-.135-.128-.352l-.014-.038.03-.028a43.354,43.354,0,0,0,8.989-11.421l.126-.277c1.8-3.968,5.153-11.354-.808-22.333-1.83-3.371-4.648-5.4-8.867-6.385l-.045-.01L76.663,74c0-.126.272-12.3,1.785-31.527.121-1.539.279-3.151.433-4.71.808-8.221,1.643-16.722-2.1-21.112a9.2,9.2,0,0,0-6.837-3.015,7.582,7.582,0,0,0-5.967,1.912c-1.94,1.819-3.2,5-3.843,9.74A117.238,117.238,0,0,0,59.481,40c0,1.488,0,2.986,0,4.435a162.963,162.963,0,0,1-.634,18.59c-.159,1.318-1.273,2.892-2.617,3.044-.866.1-2.1-.364-3.1-3.12C51.122,57.361,47.01,39.2,43.987,24.15a10.569,10.569,0,0,0-7.174-8.434,8.985,8.985,0,0,0-8.97,1.98c-2.813,2.75-3.514,7.251-1.975,12.675,2.662,9.38,5.25,17.969,7.14,24.24,1.406,4.665,2.421,8.035,2.757,9.38l.018.073-.075,0c-.074,0-7.409.418-11.516,5.023a11.554,11.554,0,0,0-2.737,8.778l0,.06-.06.005-.3.028" transform="translate(-11.852 -11.83)" fill="#5ba7a7"/>
          <path id="패스_72" data-name="패스 72" d="M114.09,760.913a1.731,1.731,0,0,1-.406-.049,38.288,38.288,0,0,1-19.754-11.7,32.085,32.085,0,0,1-5.558-8.379,1.725,1.725,0,0,1,3.2-1.3,29.386,29.386,0,0,0,5.032,7.487,34.459,34.459,0,0,0,17.894,10.535,1.725,1.725,0,0,1-.4,3.4" transform="translate(-77.372 -647.436)" fill="#5ba7a7"/>
          <path id="패스_73" data-name="패스 73" d="M271.22,538.235a1.725,1.725,0,0,1-.324-3.419c7.168-1.381,12.961-5.913,16.559-9.472A40.3,40.3,0,0,0,295,515.471l.127-.279c1.8-3.965,4.811-10.6-.755-20.852-3.284-6.048-9.87-6.218-17.5-6.415a58.327,58.327,0,0,1-10.6-.919,7.471,7.471,0,0,0-7.689,2.786,9.1,9.1,0,0,0-.923,9.667c2.725,5.6,14.446,8.234,18.732,8.778a1.725,1.725,0,0,1-.432,3.423,54.211,54.211,0,0,1-8.948-2.06c-6.5-2.106-10.691-5.01-12.454-8.631a12.8,12.8,0,0,1-1.229-7.089,12.392,12.392,0,0,1,2.536-6.214,10.948,10.948,0,0,1,11.127-4.033,55.811,55.811,0,0,0,9.972.844c7.966.205,16.2.418,20.439,8.217,6.385,11.76,2.794,19.673.865,23.924l-.125.276a43.718,43.718,0,0,1-8.262,10.9c-3.938,3.895-10.315,8.862-18.333,10.407a1.728,1.728,0,0,1-.328.031" transform="translate(-222.044 -423.816)" fill="#5ba7a7"/>
          <path id="패스_74" data-name="패스 74" d="M146.17,63.893h-.037a1.725,1.725,0,0,1-1.688-1.761c0-.121.274-12.344,1.79-31.618.122-1.555.282-3.176.436-4.743.774-7.875,1.574-16.018-1.71-19.871a7.633,7.633,0,0,0-5.673-2.434,6.009,6.009,0,0,0-4.728,1.465c-3.9,3.662-3.939,14.062-3.969,23.238,0,1.484,0,2.981,0,4.428a164.056,164.056,0,0,1-.646,18.791c-.238,1.968-1.866,4.247-4.081,4.5-1.2.135-3.417-.232-4.848-4.209-2.037-5.66-6.175-23.919-9.211-39.031a8.955,8.955,0,0,0-6.034-7.172,7.326,7.326,0,0,0-7.317,1.58c-2.357,2.3-2.9,6.222-1.538,11.032,2.639,9.3,5.109,17.518,6.913,23.52,1.366,4.545,2.353,7.83,2.7,9.226a35.014,35.014,0,0,1,.812,7.464,1.725,1.725,0,0,1-3.45-.02,31.983,31.983,0,0,0-.709-6.608c-.329-1.317-1.306-4.569-2.658-9.069-1.807-6.013-4.282-14.248-6.928-23.571-2.33-8.208.532-12.571,2.445-14.441a10.769,10.769,0,0,1,10.745-2.41,12.462,12.462,0,0,1,8.4,9.789c3.01,14.988,7.094,33.039,9.074,38.542.555,1.541,1.1,1.935,1.211,1.95a2.007,2.007,0,0,0,1.048-1.483,161.847,161.847,0,0,0,.622-18.373c0-1.451,0-2.952,0-4.444.034-10.355.07-21.063,5.059-25.742A9.394,9.394,0,0,1,139.5.023a11.026,11.026,0,0,1,8.088,3.64c4.236,4.969,3.363,13.854,2.518,22.446-.153,1.551-.31,3.154-.43,4.676-1.508,19.165-1.777,31.3-1.78,31.42a1.725,1.725,0,0,1-1.724,1.688" transform="translate(-81.298 0.001)" fill="#5ba7a7"/>
          <path id="패스_75" data-name="패스 75" d="M80.677,452.884a13.432,13.432,0,0,1-2.694-.276,14.753,14.753,0,0,1-7.566-4.224,25.982,25.982,0,0,1-5.956-10.516c-2.1-6.537-1.755-11.767,1.026-15.545,4.228-5.745,12.43-5.738,12.777-5.734a1.725,1.725,0,0,1-.015,3.45h-.014c-.134,0-6.828.04-9.98,4.343-2.077,2.835-2.249,7.018-.51,12.431,2.257,7.027,6.138,11.436,10.928,12.415,3.2.654,6.124-.379,7.255-1.682a6.647,6.647,0,0,0,1.445-5.754,14.3,14.3,0,0,0-4.438-7.393,1.725,1.725,0,0,1,2.4-2.481c6.089,5.885,7.376,13.074,3.2,17.887a10.625,10.625,0,0,1-7.858,3.078" transform="translate(-55.332 -365.263)" fill="#5ba7a7"/>
          <path id="패스_76" data-name="패스 76" d="M13.892,552.1a9.655,9.655,0,0,1-4.483-1.131,16.412,16.412,0,0,1-6.393-6.757C0,538.87-.76,534.094.768,530.02c2.085-5.557,7.654-7.574,7.89-7.657a1.725,1.725,0,0,1,1.152,3.252c-.073.027-4.329,1.617-5.823,5.648-1.137,3.069-.453,6.855,2.033,11.255,2.64,4.673,5.933,6.791,9.272,5.964,2.457-.609,4.072-2.657,4.1-3.8a1.725,1.725,0,1,1,3.448.1,6.739,6.739,0,0,1-2.044,4.339,9.821,9.821,0,0,1-4.678,2.711,9.25,9.25,0,0,1-2.229.274" transform="translate(0 -457.918)" fill="#5ba7a7"/>
          <path id="패스_77" data-name="패스 77" d="M242.907,679.417a1.725,1.725,0,0,1-1.72-1.621,14.223,14.223,0,0,1,5-11.62,20.109,20.109,0,0,1,5.376-3.5,1.725,1.725,0,0,1,1.3,3.2,16.9,16.9,0,0,0-4.432,2.929,10.724,10.724,0,0,0-3.8,8.791,1.725,1.725,0,0,1-1.618,1.825c-.035,0-.07,0-.105,0" transform="translate(-211.448 -580.917)" fill="#5ba7a7"/>
          <path id="패스_78" data-name="패스 78" d="M178.451,851.46a29.67,29.67,0,0,1-10.781-2.058,27.249,27.249,0,0,1-10.929-7.616c-3.4-4.084-4.536-8.515-3.195-12.477a1.725,1.725,0,1,1,3.267,1.106c-.942,2.782-.027,6.036,2.578,9.163,3.6,4.319,10.818,8.433,19.052,8.434a24.415,24.415,0,0,0,3.528-.255c6.289-.917,10.836-3.237,13.515-6.895a15.045,15.045,0,0,0,2.613-10.3,1.725,1.725,0,0,1,3.4-.574,18.314,18.314,0,0,1-3.2,12.867c-3.242,4.46-8.57,7.259-15.836,8.318a27.865,27.865,0,0,1-4.019.29" transform="translate(-134.147 -726.105)" fill="#5ba7a7"/>
        </g>
      </g>
      <g id="타원_8" data-name="타원 8" transform="translate(791 1235)" fill="none" stroke="#5ba7a7" stroke-width="2">
        <circle cx="90" cy="90" r="90" stroke="none"/>
        <circle cx="90" cy="90" r="89" fill="none"/>
      </g>
    </g>
  </g>
</svg>
