<svg xmlns="http://www.w3.org/2000/svg" xmlns:xlink="http://www.w3.org/1999/xlink" width="180" height="180" viewBox="0 0 180 180">
  <defs>
    <clipPath id="clip-path">
      <rect id="사각형_62" data-name="사각형 62" width="121.385" height="108.66" fill="none"/>
    </clipPath>
  </defs>
  <g id="paper2" transform="translate(-1090 -1358)">
    <g id="그룹_118" data-name="그룹 118" transform="translate(61 137)">
      <g id="그룹_117" data-name="그룹 117" transform="translate(1057.936 1257.473)">
        <g id="그룹_108" data-name="그룹 108" transform="translate(0 0)" clip-path="url(#clip-path)">
          <path id="패스_64" data-name="패스 64" d="M114.955,60.137c-7.918,7.144-12.39,10.41-17.256,8.126a14.22,14.22,0,0,1-6.62-7.371c-2.274-6.081,2.774-26.04,3.02-32.985.474-13.41-15.906-14.087-15.726-.275.055,4.18.2,22.4-.415,25.449s-4.336,3.042-5.507-.133c-2.234-6.058-4.325-22.12-6.344-31.5C63.454,9.108,44.491,13.049,49.22,26.494c5.012,14.247,10.922,29.179,11.116,30.92s-1.279,6.787-4.718,2.695S43.776,42.962,39.254,34.195c-4.793-9.292-18.385-.55-11.687,9.352,8.252,12.2,15.459,18.574,17.871,22.578s-1.443,4.7-4.122,3.781S30.49,63.916,24.329,59.4c-8.17-5.985-14.79,6.02-6.534,10.916,7.969,4.726,19.4,11.3,19.4,11.3a30.042,30.042,0,0,1,7.473,9.272c4.078,7.231,7.6,11.527,11.086,14.266-.028.55-.02.933-.02.933S55.4,115.1,68.521,118.8c12.56,3.541,30.281-2.568,31.061-14.02,0,0,0-.165,0-.435a37.653,37.653,0,0,0,11.492-15.685c4.734-11.333,12.486-16.367,18.034-20.567,9.3-7.037-1.7-19.2-14.158-7.952" transform="translate(-12.599 -12.607)" fill="#fff"/>
          <path id="패스_65" data-name="패스 65" d="M75.732,119.435a28.439,28.439,0,0,1-7.675-1.009c-6.793-1.915-9.917-5.279-11.342-7.763a10.357,10.357,0,0,1-1.48-4.993s-.007-.376.019-.908C51.529,101.829,48.008,97.3,44.175,90.5a29.969,29.969,0,0,0-7.462-9.258c-.107-.061-11.515-6.624-19.394-11.3a7.155,7.155,0,0,1-3.811-6.5,6.527,6.527,0,0,1,3.535-5.6c2.088-1,4.527-.61,6.866,1.1,6.269,4.592,14.36,9.595,16.974,10.495,1.545.532,3.635.544,4.465-.481.578-.715.439-1.831-.4-3.227a52.332,52.332,0,0,0-4.978-6.187A158.436,158.436,0,0,1,27.076,43.156c-2.821-4.171-1.775-7.531-.9-9.164a7.927,7.927,0,0,1,6.734-4.215h.05a6.626,6.626,0,0,1,5.889,3.976C43.4,42.574,51.786,55.587,55.207,59.658c1.1,1.307,2.077,1.788,2.91,1.431,1.287-.551,1.845-2.96,1.719-4.088-.107-.966-2.051-6.194-4.512-12.812-1.954-5.257-4.386-11.8-6.6-18.1-1.364-3.877-.87-7.345,1.39-9.765a9.408,9.408,0,0,1,9.2-2.446,9,9,0,0,1,6.4,7.133c.74,3.439,1.474,7.687,2.252,12.184,1.316,7.61,2.677,15.479,4.09,19.314a3.244,3.244,0,0,0,3.15,2.361,2.551,2.551,0,0,0,2.261-2.221c.573-2.868.488-19.75.414-25.438-.055-4.244,1.507-7.592,4.287-9.185a7.21,7.21,0,0,1,7.3.123c2.841,1.714,4.384,5.118,4.235,9.339a103.121,103.121,0,0,1-1.47,10.726c-1.354,8.139-3.038,18.268-1.553,22.24A14.156,14.156,0,0,0,97.27,67.8c4.646,2.181,8.876-.607,17.2-8.118l.034.037-.034-.037a17.885,17.885,0,0,1,7.187-4.182,9.938,9.938,0,0,1,5.932.1,6.685,6.685,0,0,1,4.521,5.137c.386,2.5-.86,5.043-3.418,6.98-.479.362-.966.725-1.482,1.109-5.443,4.052-12.216,9.094-16.536,19.437a38.02,38.02,0,0,1-11.488,15.691c0,.256,0,.412,0,.412-.263,3.853-2.45,7.332-6.326,10.064a30.563,30.563,0,0,1-17.124,5.012M19.432,57.4a5.377,5.377,0,0,0-2.346.533,6.425,6.425,0,0,0-3.478,5.517,7.058,7.058,0,0,0,3.762,6.41c7.878,4.672,19.285,11.234,19.4,11.3a30.055,30.055,0,0,1,7.492,9.291c3.834,6.8,7.352,11.327,11.074,14.251l.021.016v.026c-.027.542-.02.925-.02.929a10.257,10.257,0,0,0,1.47,4.947c1.416,2.466,4.523,5.806,11.279,7.711,8.014,2.259,18.177.619,24.714-3.988,3.85-2.714,6.023-6.168,6.284-9.987,0,0,0-.164,0-.432V103.9l.019-.015a37.909,37.909,0,0,0,11.476-15.665C114.913,77.85,121.7,72.8,127.151,68.739c.516-.384,1-.747,1.481-1.109,2.527-1.914,3.759-4.423,3.379-6.885a6.586,6.586,0,0,0-4.456-5.057c-3.88-1.38-8.624.1-13.018,4.067-4.045,3.65-7.093,6.2-9.782,7.606-2.827,1.482-5.149,1.645-7.528.528a14.265,14.265,0,0,1-6.646-7.4c-1.495-4,.192-14.141,1.548-22.292A103.079,103.079,0,0,0,93.6,27.486c.148-4.184-1.378-7.555-4.187-9.25a7.109,7.109,0,0,0-7.2-.122c-2.747,1.575-4.291,4.891-4.237,9.1,0,.219.269,22.031-.416,25.459a2.647,2.647,0,0,1-2.351,2.3,3.34,3.34,0,0,1-3.252-2.427c-1.417-3.843-2.778-11.717-4.1-19.331-.777-4.5-1.512-8.743-2.251-12.18a8.9,8.9,0,0,0-6.324-7.057,9.305,9.305,0,0,0-9.1,2.418c-2.233,2.392-2.719,5.824-1.368,9.663,2.215,6.3,4.647,12.839,6.6,18.1,2.559,6.884,4.408,11.858,4.517,12.836.128,1.154-.45,3.622-1.779,4.192-.878.376-1.9-.115-3.026-1.459-3.424-4.075-11.819-17.1-16.371-25.924a6.531,6.531,0,0,0-5.8-3.922h-.049a7.824,7.824,0,0,0-6.646,4.163c-.864,1.612-1.9,4.933.895,9.06A158.348,158.348,0,0,0,40.043,59.478a52.387,52.387,0,0,1,4.988,6.2c1.093,1.813.817,2.818.394,3.341-.858,1.061-3,1.056-4.575.513-2.621-.9-10.724-5.912-17-10.509A7.553,7.553,0,0,0,19.432,57.4" transform="translate(-12.148 -12.189)" fill="#5ca7a7"/>
          <path id="패스_66" data-name="패스 66" d="M67.231,99.84a1.4,1.4,0,0,1-.012-2.806A42.417,42.417,0,0,0,78.3,95.043c8.5-3.31,14.854-9.883,18.886-19.537a40.429,40.429,0,0,1,8.159-12.537,66.081,66.081,0,0,1,8.85-7.505c.514-.382,1-.743,1.473-1.1,2.15-1.628,3.165-3.616,2.859-5.6a5.172,5.172,0,0,0-3.572-3.989c-1.607-.571-5.959-1.346-11.658,3.8-4.124,3.721-7.245,6.323-10.06,7.8-3.195,1.675-5.969,1.852-8.731.555a14.8,14.8,0,0,1-6.858-8.108c-1.645-4.4-.134-14.523,1.2-23.456.6-4.053,1.176-7.881,1.255-10.112.13-3.679-1.158-6.61-3.534-8.043A5.756,5.756,0,0,0,70.734,7.1c-2.309,1.323-3.6,4.2-3.557,7.906,0,.221.282,22.12-.442,25.742a4,4,0,0,1-3.572,3.385c-.1.008-.209.012-.313.012a4.747,4.747,0,0,1-4.314-3.319c-1.46-3.959-2.832-11.894-4.159-19.569-.775-4.482-1.507-8.716-2.241-12.126a7.45,7.45,0,0,0-5.362-6.038,7.921,7.921,0,0,0-7.749,2.038c-1.872,2.006-2.256,4.95-1.081,8.291,2.211,6.286,4.641,12.822,6.593,18.073,3.017,8.114,4.472,12.063,4.594,13.158.16,1.443-.451,4.668-2.591,5.585-1.025.439-2.654.478-4.595-1.832C38.478,44.276,30,31.126,25.408,22.229c-1.35-2.616-3.251-3.178-4.609-3.189h-.04a6.44,6.44,0,0,0-5.452,3.449c-1.243,2.319-.951,5.041.823,7.663A157.155,157.155,0,0,0,28.912,46.4a52.914,52.914,0,0,1,5.129,6.394c1.5,2.484.982,4.03.287,4.89-1.317,1.629-4.069,1.63-6.068.941-3.066-1.056-11.609-6.485-17.359-10.7C9.015,46.545,7.1,46.2,5.522,46.96a5.059,5.059,0,0,0-2.712,4.357,5.616,5.616,0,0,0,3.1,5.187c7.87,4.667,19.27,11.225,19.384,11.29a1.414,1.414,0,0,1,.191.132,31.3,31.3,0,0,1,7.805,9.667C41.222,91.655,46.93,94.13,53.567,95.9a1.4,1.4,0,0,1-.724,2.711,27.468,27.468,0,0,1-10.935-5.268c-3.735-3.049-7.249-7.617-11.06-14.375a28.8,28.8,0,0,0-7.053-8.8c-1.157-.666-11.826-6.81-19.314-11.251A8.468,8.468,0,0,1,.008,51.194a7.893,7.893,0,0,1,4.3-6.763c1.482-.711,4.525-1.5,8.25,1.232,6.072,4.448,14.147,9.457,16.615,10.307,1.378.474,2.7.282,2.973-.053.116-.143.076-.708-.509-1.678A51.881,51.881,0,0,0,26.8,48.245,159.6,159.6,0,0,1,13.806,31.723c-2.351-3.476-2.706-7.325-.972-10.56a9.186,9.186,0,0,1,7.924-4.929h.063A8.019,8.019,0,0,1,27.9,20.943c4.513,8.75,12.813,21.635,16.192,25.655.823.979,1.29,1.081,1.342,1.058.452-.194,1-1.831.908-2.7-.12-.883-2.216-6.521-4.435-12.491-1.956-5.262-4.391-11.81-6.61-18.119-2.077-5.9.159-9.512,1.677-11.137A10.141,10.141,0,0,1,41.851.358a10.939,10.939,0,0,1,5.671.028A10.312,10.312,0,0,1,54.88,8.538c.746,3.466,1.482,7.727,2.263,12.238,1.305,7.55,2.655,15.358,4.027,19.076a1.927,1.927,0,0,0,1.775,1.481c.532-.042.9-.446,1.04-1.137.509-2.549.481-18.049.388-25.155-.062-4.75,1.748-8.532,4.967-10.377a8.563,8.563,0,0,1,8.676.138c3.274,1.975,5.055,5.818,4.888,10.545-.085,2.389-.64,6.114-1.284,10.427-1.155,7.74-2.736,18.341-1.345,22.06A12.279,12.279,0,0,0,85.7,54.384c1.953.917,3.818.768,6.236-.5,2.554-1.339,5.523-3.824,9.484-7.4A19.209,19.209,0,0,1,109.155,42a11.278,11.278,0,0,1,6.738.126,8.033,8.033,0,0,1,5.4,6.2c.464,3.006-.971,6.019-3.938,8.265-.483.366-.973.73-1.491,1.116-5.31,3.953-11.919,8.873-16.1,18.873-4.337,10.384-11.22,17.473-20.456,21.07A44.513,44.513,0,0,1,67.244,99.84Z" transform="translate(0 0.002)" fill="#5ca7a7"/>
          <path id="패스_67" data-name="패스 67" d="M607.932,626.588a1.4,1.4,0,0,1-1.3-.875,18.615,18.615,0,0,1-.787-11.954,26.5,26.5,0,0,1,4.9-9.484,41.921,41.921,0,0,1,9.064-8.529,1.4,1.4,0,0,1,1.539,2.346,39.779,39.779,0,0,0-8.432,7.961c-4.892,6.318-6.131,12.577-3.682,18.6a1.4,1.4,0,0,1-1.3,1.931" transform="translate(-544.567 -535.844)" fill="#5ca7a7"/>
          <path id="패스_68" data-name="패스 68" d="M438.355,923.725a29.354,29.354,0,0,1-7.925-1.041c-7.229-2.038-10.63-5.706-12.21-8.425a11.9,11.9,0,0,1-1.729-5.742l2.8.062v-.01a9.392,9.392,0,0,0,1.434,4.423c1.914,3.184,5.532,5.6,10.461,6.991,7.577,2.136,17.193.58,23.384-3.784,2.467-1.739,5.47-4.722,5.766-9.061a1.4,1.4,0,0,1,2.8.191c-.293,4.306-2.7,8.166-6.948,11.163a31.84,31.84,0,0,1-17.837,5.233" transform="translate(-374.757 -815.064)" fill="#5ca7a7"/>
          <path id="패스_69" data-name="패스 69" d="M379.047,623.626a9.454,9.454,0,0,1-1.669-.141,1.4,1.4,0,1,1,.495-2.762c3.367.6,8.97-1.5,16.2-6.075a110.643,110.643,0,0,0,10.275-7.418,1.4,1.4,0,0,1,1.8,2.156A111.322,111.322,0,0,1,395.6,617c-6.95,4.4-12.507,6.623-16.555,6.623" transform="translate(-338.524 -546.092)" fill="#5ca7a7"/>
        </g>
      </g>
      <g id="타원_9" data-name="타원 9" transform="translate(1029 1221)" fill="none" stroke="#5ba7a7" stroke-width="2">
        <circle cx="90" cy="90" r="90" stroke="none"/>
        <circle cx="90" cy="90" r="89" fill="none"/>
      </g>
    </g>
  </g>
</svg>
