<svg xmlns="http://www.w3.org/2000/svg" xmlns:xlink="http://www.w3.org/1999/xlink" width="180" height="180" viewBox="0 0 180 180">
  <defs>
    <clipPath id="clip-path">
      <rect id="사각형_64" data-name="사각형 64" width="91.611" height="97.424" fill="none"/>
    </clipPath>
  </defs>
  <g id="rock2" transform="translate(-680 -1358)">
    <g id="타원_7" data-name="타원 7" transform="translate(680 1358)" fill="#5ba7a7" stroke="#5ba7a7" stroke-width="2">
      <circle cx="90" cy="90" r="90" stroke="none"/>
      <circle cx="90" cy="90" r="89" fill="none"/>
    </g>
    <g id="그룹_116" data-name="그룹 116" transform="translate(724 1399)">
      <g id="그룹_112" data-name="그룹 112" clip-path="url(#clip-path)">
        <path id="패스_79" data-name="패스 79" d="M26.938,88.869c-3.778,12.322,12.948,21.507,31.319,18.444,21.251-3.544,20.573-12.205,19.053-15.025,0,0-.044-.08-.121-.211a34.546,34.546,0,0,0,7.055-3.607c6.57-4.474,18.077-20.439,17.883-26.546-.212-6.655-6.23-20.536-13.8-21.324a135.661,135.661,0,0,0,.023-13.919C87.88,19.552,82.886,11,70.025,14.9c-4.9,1.487-6.146,3.148-9.281,2.828l.447.448c-2.826-1.557-6.616-2.45-11.434.5-2.426,1.485-5.309,4.836-10,5.614s-9.3,2.238-12.1,7.037-8.525,3.171-12.144,12.818c-4.081,10.879-.035,31.678,11.426,44.727" transform="translate(-12.243 -12.205)" fill="#fff"/>
        <path id="패스_80" data-name="패스 80" d="M396.665,274.359a1.725,1.725,0,0,1-.392-3.4c.45-.105.963-.219,1.506-.339,4.148-.918,11.091-2.454,16.633-6.227,2.967-2.02,7.3-6.815,11.03-12.216,3.78-5.467,6.174-10.511,6.1-12.85-.149-4.681-3.766-14.322-8.877-18.187a5.868,5.868,0,0,0-5.032-1.361c-1.643.41-3.455.78-5.374,1.171-6.424,1.312-14.419,2.945-16.6,6.606a4.793,4.793,0,0,0-.271,4.024,12.238,12.238,0,0,0,7.022,8.2c4.258,1.728,9.834,1,15.3-2.008a1.725,1.725,0,1,1,1.662,3.023,26.452,26.452,0,0,1-9.518,3.212,17.411,17.411,0,0,1-8.74-1.03c-4.367-1.772-7.487-5.365-9.024-10.389a8.153,8.153,0,0,1,.6-6.8c2.956-4.973,11.411-6.7,18.871-8.224,1.881-.384,3.658-.747,5.23-1.139a9.257,9.257,0,0,1,7.947,1.956c6.082,4.6,10.066,15.231,10.244,20.829.138,4.338-4.145,11.211-6.71,14.921-4.016,5.809-8.586,10.831-11.926,13.105-6.091,4.147-13.439,5.772-17.83,6.743-.532.118-1.035.229-1.464.33a1.736,1.736,0,0,1-.4.046" transform="translate(-343.382 -189.549)" fill="#5ba7a7"/>
        <path id="패스_81" data-name="패스 81" d="M408.96,30.129l-.1,0a1.725,1.725,0,0,1-1.625-1.819,135.337,135.337,0,0,0,.024-13.718c-.268-4.063-2.035-7.6-4.726-9.461-2.824-1.954-6.652-2.218-11.378-.786a32.7,32.7,0,0,0-4.2,1.618A10.279,10.279,0,0,1,381.2,7.236a1.725,1.725,0,1,1,.35-3.432c1.451.148,2.355-.257,4-.992a36.143,36.143,0,0,1,4.608-1.771c7.2-2.184,11.776-.526,14.342,1.25a13.6,13.6,0,0,1,4.555,5.521,18.419,18.419,0,0,1,1.651,6.55,136.161,136.161,0,0,1-.022,14.14,1.725,1.725,0,0,1-1.721,1.628" transform="translate(-332.875 0.001)" fill="#5ba7a7"/>
        <path id="패스_82" data-name="패스 82" d="M129.171,236.837q-.335,0-.672-.027c-4.014-.317-8.1-3.427-14.117-10.735a1.725,1.725,0,1,1,2.664-2.192c5.211,6.333,8.827,9.259,11.725,9.488,1.7.134,3.445-.651,5.5-2.469,2.512-2.223-.673-9.489-3.483-15.9l-.15-.341c-1.975-4.507-9.975-9.977-12.891-11.7a1.725,1.725,0,0,1,1.757-2.969c.467.276,11.468,6.842,14.293,13.289l.149.341a73.967,73.967,0,0,1,4.128,10.846c.387,1.556,1.567,6.291-1.518,9.022-2.57,2.274-4.936,3.352-7.387,3.352" transform="translate(-99.945 -175.137)" fill="#5ba7a7"/>
        <path id="패스_83" data-name="패스 83" d="M264.9,156.794c-.132,0-.264,0-.4,0a1.725,1.725,0,0,1,.068-3.449c3.621.07,6.219-1.007,7.944-3.3,3.913-5.2,2.337-15.067.788-20.081-2.258-7.313-12.81-13.432-12.916-13.493a1.725,1.725,0,0,1,1.713-2.994c.482.276,11.838,6.85,14.5,15.469,2.163,7,3.113,17.276-1.329,23.174-2.337,3.1-5.825,4.674-10.37,4.674" transform="translate(-227.546 -99.296)" fill="#5ba7a7"/>
        <path id="패스_84" data-name="패스 84" d="M30.417,108.659a1.723,1.723,0,0,1-.482-.069,33.946,33.946,0,0,1-14.078-8.345A48.547,48.547,0,0,1,6.233,86.9,59.935,59.935,0,0,1,.392,67.791C-.415,61.409.033,55.515,1.654,51.2c2.412-6.431,5.81-8.382,8.54-9.949a8.883,8.883,0,0,0,3.729-3.133c3.225-5.524,8.538-7.078,13.31-7.869,2.968-.492,5.157-2.206,7.089-3.718a25.344,25.344,0,0,1,2.291-1.665c7.918-4.849,13.6-.5,16.328,1.594.355.272.771.581,1.212.909,4.125,3.064,11.028,8.192,11.624,14.682.627,6.834-1.3,9.193-1.687,9.6l-2.475-2.4a.486.486,0,0,0-.06.067c.013-.016,1.27-1.69.788-6.945-.455-4.955-6.584-9.508-10.245-12.228-.451-.335-.877-.652-1.253-.939-3.3-2.531-6.986-4.724-12.429-1.39a23.1,23.1,0,0,0-1.966,1.44c-2.145,1.679-4.814,3.769-8.651,4.4-4.182.693-8.4,1.925-10.9,6.2a12,12,0,0,1-4.991,4.385c-2.483,1.426-5.051,2.9-7.027,8.169-1.427,3.8-1.807,9.115-1.07,14.951a56.453,56.453,0,0,0,5.5,17.994c5.164,10.305,12.828,17.381,21.581,19.925a1.725,1.725,0,0,1-.481,3.382" transform="translate(0 -19.864)" fill="#5ba7a7"/>
        <path id="패스_85" data-name="패스 85" d="M319.376,412.988a1.725,1.725,0,0,1-1.7-1.436c-.782-4.6,1.288-9.092,5.986-12.995a31.791,31.791,0,0,1,7.049-4.38,1.725,1.725,0,0,1,1.353,3.173c-.168.072-12.382,5.425-10.987,13.623a1.726,1.726,0,0,1-1.7,2.014" transform="translate(-278.396 -345.491)" fill="#5ba7a7"/>
        <path id="패스_86" data-name="패스 86" d="M560.466,416.2a1.716,1.716,0,0,1-.922-.268,12.037,12.037,0,0,0-1.053-.6c-1.183-.608-1.806-1.058-4.152-3.715a1.725,1.725,0,1,1,2.586-2.284c2.126,2.407,2.446,2.572,3.145,2.932.329.169.738.38,1.321.75a1.725,1.725,0,0,1-.925,3.182" transform="translate(-485.662 -358.397)" fill="#5ba7a7"/>
        <path id="패스_87" data-name="패스 87" d="M88.392,427.531a11.993,11.993,0,0,1-3.192-.474,1.725,1.725,0,1,1,.92-3.325c2.794.773,3.886,0,3.9-.012a.452.452,0,0,0-.073.064l2.378,2.5a5.634,5.634,0,0,1-3.93,1.247" transform="translate(-73.593 -371.471)" fill="#5ba7a7"/>
        <path id="패스_88" data-name="패스 88" d="M127.439,630.684c-9.554,0-18.273-3.1-22.989-8.492a13.034,13.034,0,0,1-2.873-12.779,1.725,1.725,0,1,1,3.3,1.013,9.575,9.575,0,0,0,2.171,9.495c2.381,2.72,6.278,4.9,10.973,6.141a38.992,38.992,0,0,0,16.241.606c12.936-2.157,16.659-6.136,17.727-8.316a4.619,4.619,0,0,0,.091-4.19,1.725,1.725,0,0,1,3.037-1.636,8.026,8.026,0,0,1-.03,7.345c-2.416,4.929-9.231,8.361-20.258,10.2a45.022,45.022,0,0,1-7.388.614" transform="translate(-88.53 -533.261)" fill="#5ba7a7"/>
      </g>
    </g>
  </g>
</svg>
