<svg id="footer_logo" xmlns="http://www.w3.org/2000/svg" xmlns:xlink="http://www.w3.org/1999/xlink" width="220" height="99.175" viewBox="0 0 220 99.175">
  <defs>
    <clipPath id="clip-path">
      <rect id="사각형_66" data-name="사각형 66" width="220" height="99.175" fill="none"/>
    </clipPath>
  </defs>
  <path id="패스_115" data-name="패스 115" d="M255.2,186.791h5.728v1.056h-4.469v3.358h3.792v1.056h-3.792v4.455H255.2Z" transform="translate(-152.077 -112.621)" fill="#fff"/>
  <g id="그룹_145" data-name="그룹 145">
    <g id="그룹_144" data-name="그룹 144" clip-path="url(#clip-path)">
      <path id="패스_116" data-name="패스 116" d="M270.8,196.116c0-2.341,1.539-3.7,3.259-3.7s3.259,1.358,3.259,3.7a3.283,3.283,0,1,1-6.518,0m5.3,0c0-1.617-.828-2.716-2.044-2.716s-2.031,1.1-2.031,2.716.815,2.69,2.031,2.69,2.044-1.073,2.044-2.69" transform="translate(-161.242 -114.571)" fill="#fff"/>
      <path id="패스_117" data-name="패스 117" d="M291.48,192.6h.97l.1,1.28h.039a2.425,2.425,0,0,1,1.992-1.462,1.5,1.5,0,0,1,.75.155l-.22,1.034a1.666,1.666,0,0,0-.685-.116c-.582,0-1.306.414-1.772,1.617v4.513H291.48Z" transform="translate(-173.557 -114.571)" fill="#fff"/>
      <path id="패스_118" data-name="패스 118" d="M310.916,192.585l-2.845-5.794h1.28l1.216,2.677c.31.7.595,1.358.931,2.069h.051c.337-.712.66-1.371.944-2.069l1.229-2.677h1.242l-2.845,5.794v3.686h-1.2Z" transform="translate(-183.435 -111.221)" fill="#fff"/>
      <path id="패스_119" data-name="패스 119" d="M325.235,196.116c0-2.341,1.539-3.7,3.259-3.7s3.259,1.358,3.259,3.7a3.283,3.283,0,1,1-6.518,0m5.3,0c0-1.617-.828-2.716-2.043-2.716s-2.031,1.1-2.031,2.716.815,2.69,2.031,2.69,2.043-1.073,2.043-2.69" transform="translate(-193.655 -114.571)" fill="#fff"/>
      <path id="패스_120" data-name="패스 120" d="M345.694,197.313v-4.449h1.177v4.307c0,1.306.388,1.863,1.319,1.863.724,0,1.229-.349,1.9-1.19v-4.979h1.177v7.023h-.983l-.09-1.1h-.039a3.013,3.013,0,0,1-2.328,1.268c-1.475,0-2.134-.957-2.134-2.742" transform="translate(-205.837 -114.837)" fill="#fff"/>
      <path id="패스_121" data-name="패스 121" d="M365.322,192.6h.97l.1,1.28h.039a2.425,2.425,0,0,1,1.992-1.462,1.5,1.5,0,0,1,.75.155l-.22,1.034a1.667,1.667,0,0,0-.685-.116c-.582,0-1.306.414-1.772,1.617v4.513h-1.177Z" transform="translate(-217.524 -114.571)" fill="#fff"/>
      <path id="패스_122" data-name="패스 122" d="M260.8,227.873h-3.466l-.919,2.9H255.2l3.22-9.48h1.332l3.22,9.48H261.7Zm-.3-.957-.453-1.448c-.349-1.074-.646-2.108-.956-3.207h-.052c-.3,1.112-.608,2.134-.944,3.207l-.466,1.448Z" transform="translate(-151.954 -131.763)" fill="#fff"/>
      <path id="패스_123" data-name="패스 123" d="M277.448,227.1h.97l.1,1.022h.039a3.087,3.087,0,0,1,2.186-1.2,1.852,1.852,0,0,1,1.94,1.345A3.32,3.32,0,0,1,285,226.916c1.448,0,2.134.957,2.134,2.755v4.449h-1.177v-4.294c0-1.319-.414-1.875-1.306-1.875a2.594,2.594,0,0,0-1.772,1.073v5.1H281.7v-4.294c0-1.319-.414-1.875-1.306-1.875a2.594,2.594,0,0,0-1.772,1.073v5.1h-1.177Z" transform="translate(-165.201 -135.113)" fill="#fff"/>
      <path id="패스_124" data-name="패스 124" d="M306.824,231.813v-4.449H308v4.307c0,1.306.388,1.863,1.319,1.863.724,0,1.229-.349,1.9-1.19v-4.979H312.4v7.022h-.983l-.09-1.1h-.039a3.013,3.013,0,0,1-2.328,1.268c-1.475,0-2.134-.957-2.134-2.742" transform="translate(-182.693 -135.38)" fill="#fff"/>
      <path id="패스_125" data-name="패스 125" d="M324.5,233.318l.582-.776a3.184,3.184,0,0,0,2.082.828c.931,0,1.384-.492,1.384-1.1,0-.712-.828-1.035-1.6-1.332-.983-.362-2.1-.841-2.1-2.031,0-1.112.892-1.992,2.419-1.992a3.637,3.637,0,0,1,2.185.789l-.569.763a2.643,2.643,0,0,0-1.617-.621c-.88,0-1.28.466-1.28,1.009,0,.673.763.918,1.552,1.216,1.022.388,2.147.8,2.147,2.134,0,1.138-.905,2.082-2.561,2.082a4.235,4.235,0,0,1-2.625-.97" transform="translate(-193.219 -135.113)" fill="#fff"/>
      <path id="패스_126" data-name="패스 126" d="M340.1,230.616a3.4,3.4,0,0,1,3.169-3.7c1.785,0,2.794,1.293,2.794,3.3a4.657,4.657,0,0,1-.051.672h-4.734a2.327,2.327,0,0,0,2.328,2.457,3.028,3.028,0,0,0,1.759-.556l.427.776a4.179,4.179,0,0,1-2.328.724,3.357,3.357,0,0,1-3.363-3.673m4.928-.569c0-1.422-.646-2.185-1.746-2.185a2.16,2.16,0,0,0-2.017,2.185Z" transform="translate(-202.508 -135.114)" fill="#fff"/>
      <path id="패스_127" data-name="패스 127" d="M359.121,227.1h.97l.1,1.022h.039a3.087,3.087,0,0,1,2.186-1.2,1.852,1.852,0,0,1,1.94,1.345,3.32,3.32,0,0,1,2.315-1.345c1.448,0,2.134.957,2.134,2.755v4.449h-1.177v-4.294c0-1.319-.413-1.875-1.306-1.875a2.594,2.594,0,0,0-1.772,1.073v5.1h-1.177v-4.294c0-1.319-.414-1.875-1.306-1.875a2.594,2.594,0,0,0-1.772,1.073v5.1h-1.177Z" transform="translate(-213.832 -135.113)" fill="#fff"/>
      <path id="패스_128" data-name="패스 128" d="M387.411,230.616a3.4,3.4,0,0,1,3.169-3.7c1.785,0,2.794,1.293,2.794,3.3a4.656,4.656,0,0,1-.051.672h-4.734a2.327,2.327,0,0,0,2.328,2.457,3.028,3.028,0,0,0,1.759-.556l.427.776a4.179,4.179,0,0,1-2.328.724,3.356,3.356,0,0,1-3.363-3.673m4.928-.569c0-1.422-.646-2.185-1.746-2.185a2.16,2.16,0,0,0-2.017,2.185Z" transform="translate(-230.677 -135.114)" fill="#fff"/>
      <path id="패스_129" data-name="패스 129" d="M406.43,227.1h.97l.1,1.009h.039a3.369,3.369,0,0,1,2.354-1.19c1.474,0,2.147.957,2.147,2.755v4.449h-1.177v-4.294c0-1.319-.4-1.875-1.332-1.875a2.671,2.671,0,0,0-1.927,1.073v5.1H406.43Z" transform="translate(-242.001 -135.113)" fill="#fff"/>
      <path id="패스_130" data-name="패스 130" d="M424.932,229.321v-3.893h-1.047v-.892l1.1-.065.142-1.966h.983v1.966h1.9v.957h-1.9v3.919c0,.867.271,1.358,1.086,1.358a2.483,2.483,0,0,0,.8-.181l.233.88a4.43,4.43,0,0,1-1.293.259c-1.5,0-2-.931-2-2.341" transform="translate(-252.395 -132.487)" fill="#fff"/>
      <path id="패스_131" data-name="패스 131" d="M441.083,231.766a.854.854,0,1,1,.854.893.869.869,0,0,1-.854-.893" transform="translate(-262.635 -137.454)" fill="#fff"/>
      <path id="패스_132" data-name="패스 132" d="M457.136,227.873H453.67l-.918,2.9h-1.216l3.22-9.48h1.332l3.22,9.48h-1.267Zm-.3-.957-.453-1.448c-.349-1.074-.646-2.108-.957-3.207h-.052c-.3,1.112-.608,2.134-.944,3.207l-.466,1.448Z" transform="translate(-268.859 -131.763)" fill="#fff"/>
      <path id="패스_133" data-name="패스 133" d="M472.473,230.615a3.419,3.419,0,0,1,3.388-3.7,3,3,0,0,1,2.056.828l-.608.789a2.039,2.039,0,0,0-1.41-.634c-1.267,0-2.2,1.1-2.2,2.716s.88,2.69,2.173,2.69a2.476,2.476,0,0,0,1.655-.7l.5.789a3.347,3.347,0,0,1-2.263.893c-1.863,0-3.3-1.345-3.3-3.673" transform="translate(-281.326 -135.113)" fill="#fff"/>
      <path id="패스_134" data-name="패스 134" d="M488.673,229.321v-3.893h-1.048v-.892l1.1-.065.142-1.966h.983v1.966h1.9v.957h-1.9v3.919c0,.867.271,1.358,1.086,1.358a2.481,2.481,0,0,0,.8-.181l.233.88a4.43,4.43,0,0,1-1.293.259c-1.5,0-2-.931-2-2.341" transform="translate(-290.348 -132.487)" fill="#fff"/>
      <path id="패스_135" data-name="패스 135" d="M501.211,220.775a.817.817,0,0,1,1.63,0,.817.817,0,0,1-1.63,0m.22,2.211h1.177v7.022h-1.177Z" transform="translate(-298.437 -131.002)" fill="#fff"/>
      <path id="패스_136" data-name="패스 136" d="M509.235,230.615c0-2.341,1.539-3.7,3.259-3.7s3.259,1.358,3.259,3.7a3.283,3.283,0,1,1-6.518,0m5.3,0c0-1.617-.828-2.716-2.043-2.716s-2.031,1.1-2.031,2.716.815,2.69,2.031,2.69,2.043-1.073,2.043-2.69" transform="translate(-303.215 -135.113)" fill="#fff"/>
      <path id="패스_137" data-name="패스 137" d="M529.916,227.1h.97l.1,1.009h.039a3.368,3.368,0,0,1,2.354-1.19c1.474,0,2.147.957,2.147,2.755v4.449h-1.177v-4.294c0-1.319-.4-1.875-1.332-1.875a2.671,2.671,0,0,0-1.927,1.073v5.1h-1.177Z" transform="translate(-315.529 -135.113)" fill="#fff"/>
      <path id="패스_138" data-name="패스 138" d="M41.23,49.034,16.38,44.855l-.453,22.479,18.752-1.694V77.952L15.927,76.145l.565,27.563H0l.9-33.55L0,36.5H43.829Z" transform="translate(0 -21.731)" fill="#fff"/>
      <path id="패스_139" data-name="패스 139" d="M140.166,118.634l.9,25.755H124.238l.678-24.851L99.952,85.649l14.007-9.714,8.811,14.571,12.652,18.413,11.409-19.2,7.456-13.781,10.052,6.1Z" transform="translate(-59.514 -45.214)" fill="#fff"/>
      <path id="패스_140" data-name="패스 140" d="M305.693,30.387,295.188,0H279.035L268.415,31.177,255.2,65.065,266.27,68.68l4.293-14.12h27.563l3.953,14.12,17.4-5.309Zm-25.112,4.349a1.955,1.955,0,1,1-1.955,1.955,1.955,1.955,0,0,1,1.955-1.955m5.054,13.384c-6.269,0-7.326-4.72-7.326-4.72h15.427s-1.831,4.72-8.1,4.72m7.9-9.723a9.2,9.2,0,0,1-4.611-1.845.412.412,0,0,1-.065-.5l1.45-1.967a.424.424,0,0,1,.566-.148.417.417,0,0,1,.148.566l-1.23,1.67a8.245,8.245,0,0,0,3.741,1.4.424.424,0,0,1,.414.414.416.416,0,0,1-.414.414" transform="translate(-151.954)" fill="#fff"/>
    </g>
  </g>
</svg>
