<svg xmlns="http://www.w3.org/2000/svg" xmlns:xlink="http://www.w3.org/1999/xlink" width="20" height="21.548" viewBox="0 0 20 21.548">
  <defs>
    <clipPath id="clip-path">
      <rect id="사각형_35" data-name="사각형 35" width="20" height="21.548" fill="none" stroke="#818181" stroke-width="1.1"/>
    </clipPath>
  </defs>
  <g id="ID_icon" clip-path="url(#clip-path)">
    <g id="타원_1" data-name="타원 1" transform="translate(4.624 10.789) rotate(-89.712)" fill="none" stroke="#818181" stroke-width="1.1">
      <circle cx="5.349" cy="5.349" r="5.349" stroke="none"/>
      <circle cx="5.349" cy="5.349" r="4.799" fill="none"/>
    </g>
    <g id="패스_3" data-name="패스 3" transform="translate(-2.382 -246.787)" fill="none">
      <path d="M20.742,268.216H4.021a1.473,1.473,0,0,1-1.15-.529A1.677,1.677,0,0,1,2.53,266.3a8.134,8.134,0,0,1,3.619-5.4,11.332,11.332,0,0,1,6.233-1.805,11.336,11.336,0,0,1,6.233,1.805,8.132,8.132,0,0,1,3.619,5.4,1.677,1.677,0,0,1-.341,1.383A1.473,1.473,0,0,1,20.742,268.216Z" stroke="none"/>
      <path d="M 20.76112937927246 267.1160278320312 C 20.8719596862793 267.1160278320312 20.97624015808105 267.0672302246094 21.04829025268555 266.9808349609375 C 21.14723014831543 266.8625793457031 21.18452072143555 266.6871337890625 21.15050888061523 266.4989929199219 C 20.80389976501465 264.5762329101562 19.71584892272949 262.9566955566406 18.00432968139648 261.815673828125 C 16.43537902832031 260.7705688476562 14.43848991394043 260.1950073242188 12.38152980804443 260.1950073242188 C 10.32390975952148 260.1950073242188 8.327090263366699 260.7705383300781 6.759239673614502 261.8153381347656 C 5.047239780426025 262.9570922851562 3.959129810333252 264.5768432617188 3.612459897994995 266.5000305175781 C 3.578539848327637 266.6876220703125 3.615839719772339 266.8630676269531 3.715489864349365 266.9822082519531 C 3.78650975227356 267.0672607421875 3.890789747238159 267.1160278320312 4.001619815826416 267.1160278320312 L 4.020699977874756 267.1159057617188 L 20.76112937927246 267.1160278320312 M 4.001621246337891 268.2160339355469 C 3.565336465835571 268.2160339355469 3.151095151901245 268.0225524902344 2.871089696884155 267.6871643066406 C 2.562309741973877 267.3180541992188 2.437849760055542 266.8140258789062 2.530009746551514 266.3043212890625 C 2.930939912796021 264.0801391601562 4.182219982147217 262.2117919921875 6.148910045623779 260.9001770019531 C 7.896139621734619 259.73583984375 10.10937976837158 259.0950012207031 12.38152980804443 259.0950012207031 C 14.65367984771729 259.0950012207031 16.86692047119141 259.736328125 18.61414909362793 260.9001770019531 C 20.58083915710449 262.2113037109375 21.83211898803711 264.0796508789062 22.23305892944336 266.3038330078125 C 22.32521057128906 266.8135681152344 22.20075035095215 267.3175964355469 21.89196968078613 267.6866760253906 C 21.60799026489258 268.0271606445312 21.18564033508301 268.2214050292969 20.74235916137695 268.2159118652344 L 4.020699977874756 268.2159118652344 C 4.014341831207275 268.2160034179688 4.007970333099365 268.2160339355469 4.001621246337891 268.2160339355469 Z" stroke="none" fill="#818181"/>
    </g>
  </g>
</svg>
