<svg id="login_logo" xmlns="http://www.w3.org/2000/svg" xmlns:xlink="http://www.w3.org/1999/xlink" width="326.148" height="147.026" viewBox="0 0 326.148 147.026">
  <defs>
    <clipPath id="clip-path">
      <rect id="사각형_54" data-name="사각형 54" width="326.148" height="147.026" fill="none"/>
    </clipPath>
  </defs>
  <g id="그룹_60" data-name="그룹 60" clip-path="url(#clip-path)">
    <path id="패스_36" data-name="패스 36" d="M270.8,197.9c0-3.47,2.282-5.484,4.832-5.484s4.832,2.013,4.832,5.484c0,3.451-2.282,5.445-4.832,5.445s-4.832-1.994-4.832-5.445m7.861,0c0-2.4-1.227-4.026-3.029-4.026s-3.01,1.63-3.01,4.026,1.208,3.988,3.01,3.988,3.029-1.591,3.029-3.988" transform="translate(-108.382 -77.011)" fill="#757474"/>
    <path id="패스_37" data-name="패스 37" d="M291.48,192.686h1.438l.153,1.9h.058a3.6,3.6,0,0,1,2.953-2.167,2.217,2.217,0,0,1,1.112.23l-.326,1.534a2.472,2.472,0,0,0-1.016-.172c-.863,0-1.937.614-2.627,2.4V203.1H291.48Z" transform="translate(-116.66 -77.011)" fill="#757474"/>
    <path id="패스_38" data-name="패스 38" d="M312.289,195.38l-4.218-8.589h1.9l1.8,3.969c.46,1.035.882,2.013,1.381,3.068h.076c.5-1.055.978-2.033,1.4-3.068l1.822-3.969h1.841l-4.218,8.589v5.465h-1.783Z" transform="translate(-123.3 -74.76)" fill="#757474"/>
    <path id="패스_39" data-name="패스 39" d="M325.235,197.9c0-3.47,2.282-5.484,4.832-5.484s4.832,2.013,4.832,5.484c0,3.451-2.281,5.445-4.832,5.445s-4.832-1.994-4.832-5.445m7.861,0c0-2.4-1.227-4.026-3.029-4.026s-3.01,1.63-3.01,4.026,1.208,3.988,3.01,3.988S333.1,200.3,333.1,197.9" transform="translate(-130.169 -77.011)" fill="#757474"/>
    <path id="패스_40" data-name="패스 40" d="M345.694,199.46v-6.6h1.745v6.384c0,1.937.575,2.761,1.956,2.761,1.074,0,1.821-.518,2.818-1.764v-7.382h1.745v10.411H352.5l-.134-1.63h-.057a4.468,4.468,0,0,1-3.451,1.879c-2.186,0-3.164-1.419-3.164-4.065" transform="translate(-138.358 -77.19)" fill="#757474"/>
    <path id="패스_41" data-name="패스 41" d="M365.322,192.686h1.438l.153,1.9h.058a3.6,3.6,0,0,1,2.953-2.167,2.217,2.217,0,0,1,1.112.23l-.326,1.534a2.471,2.471,0,0,0-1.016-.172c-.863,0-1.937.614-2.627,2.4V203.1h-1.745Z" transform="translate(-146.214 -77.011)" fill="#757474"/>
    <path id="패스_42" data-name="패스 42" d="M263.5,231.049h-5.138L257,235.344h-1.8l4.774-14.054h1.975l4.774,14.054h-1.878Zm-.44-1.419-.672-2.147c-.518-1.592-.958-3.125-1.418-4.755h-.077c-.441,1.649-.9,3.163-1.4,4.755l-.69,2.147Z" transform="translate(-102.139 -88.567)" fill="#757474"/>
    <path id="패스_43" data-name="패스 43" d="M277.448,227.185h1.438l.153,1.514h.058a4.576,4.576,0,0,1,3.241-1.783,2.746,2.746,0,0,1,2.876,1.994c1.074-1.17,2.166-1.994,3.432-1.994,2.147,0,3.164,1.419,3.164,4.084v6.6h-1.745V231.23c0-1.956-.613-2.78-1.936-2.78a3.846,3.846,0,0,0-2.627,1.591V237.6h-1.745V231.23c0-1.956-.614-2.78-1.936-2.78a3.845,3.845,0,0,0-2.627,1.591V237.6h-1.745Z" transform="translate(-111.043 -90.819)" fill="#757474"/>
    <path id="패스_44" data-name="패스 44" d="M306.824,233.96v-6.6h1.745v6.385c0,1.937.575,2.761,1.956,2.761,1.074,0,1.822-.518,2.818-1.764v-7.382h1.745v10.411H313.63l-.134-1.63h-.058a4.467,4.467,0,0,1-3.451,1.879c-2.186,0-3.164-1.419-3.164-4.065" transform="translate(-122.801 -90.998)" fill="#757474"/>
    <path id="패스_45" data-name="패스 45" d="M324.5,236.407l.863-1.15a4.719,4.719,0,0,0,3.086,1.227c1.381,0,2.052-.729,2.052-1.63,0-1.055-1.227-1.534-2.378-1.975-1.457-.537-3.106-1.246-3.106-3.01,0-1.649,1.323-2.953,3.585-2.953a5.392,5.392,0,0,1,3.24,1.17L331,229.217a3.918,3.918,0,0,0-2.4-.92c-1.3,0-1.9.69-1.9,1.5,0,1,1.131,1.361,2.3,1.8,1.515.575,3.183,1.189,3.183,3.164,0,1.687-1.342,3.087-3.8,3.087a6.278,6.278,0,0,1-3.892-1.438" transform="translate(-129.876 -90.819)" fill="#757474"/>
    <path id="패스_46" data-name="패스 46" d="M340.1,232.4c0-3.375,2.282-5.484,4.7-5.484,2.646,0,4.141,1.917,4.141,4.889a6.9,6.9,0,0,1-.076,1h-7.018c.115,2.224,1.477,3.643,3.452,3.643a4.489,4.489,0,0,0,2.607-.825l.633,1.15a6.2,6.2,0,0,1-3.451,1.074c-2.761,0-4.985-2.013-4.985-5.445m7.305-.844c0-2.109-.958-3.24-2.589-3.24-1.476,0-2.78,1.188-2.99,3.24Z" transform="translate(-136.12 -90.819)" fill="#757474"/>
    <path id="패스_47" data-name="패스 47" d="M359.121,227.185h1.438l.153,1.514h.058a4.576,4.576,0,0,1,3.241-1.783,2.746,2.746,0,0,1,2.876,1.994c1.074-1.17,2.166-1.994,3.432-1.994,2.147,0,3.164,1.419,3.164,4.084v6.6h-1.745V231.23c0-1.956-.613-2.78-1.936-2.78a3.846,3.846,0,0,0-2.627,1.591V237.6h-1.745V231.23c0-1.956-.614-2.78-1.936-2.78a3.845,3.845,0,0,0-2.627,1.591V237.6h-1.745Z" transform="translate(-143.732 -90.819)" fill="#757474"/>
    <path id="패스_48" data-name="패스 48" d="M387.411,232.4c0-3.375,2.282-5.484,4.7-5.484,2.646,0,4.141,1.917,4.141,4.889a6.9,6.9,0,0,1-.076,1h-7.018c.115,2.224,1.477,3.643,3.452,3.643a4.488,4.488,0,0,0,2.607-.825l.633,1.15a6.2,6.2,0,0,1-3.451,1.074c-2.761,0-4.985-2.013-4.985-5.445m7.305-.844c0-2.109-.958-3.24-2.589-3.24-1.476,0-2.78,1.188-2.99,3.24Z" transform="translate(-155.054 -90.819)" fill="#757474"/>
    <path id="패스_49" data-name="패스 49" d="M406.43,227.185h1.438l.153,1.5h.058a4.994,4.994,0,0,1,3.489-1.764c2.186,0,3.183,1.419,3.183,4.084v6.6h-1.745V231.23c0-1.956-.594-2.78-1.975-2.78-1.074,0-1.8.537-2.857,1.591V237.6H406.43Z" transform="translate(-162.666 -90.819)" fill="#757474"/>
    <path id="패스_50" data-name="패스 50" d="M425.438,232.609v-5.771h-1.553v-1.323l1.63-.1.211-2.914h1.458v2.914H430v1.419h-2.818v5.809c0,1.285.4,2.013,1.61,2.013a3.682,3.682,0,0,0,1.189-.269l.346,1.3a6.568,6.568,0,0,1-1.918.383c-2.224,0-2.972-1.381-2.972-3.47" transform="translate(-169.652 -89.054)" fill="#757474"/>
    <path id="패스_51" data-name="패스 51" d="M441.083,232.209a1.267,1.267,0,1,1,1.265,1.323,1.288,1.288,0,0,1-1.265-1.323" transform="translate(-176.535 -92.393)" fill="#757474"/>
    <path id="패스_52" data-name="패스 52" d="M459.838,231.049H454.7l-1.361,4.294h-1.8l4.774-14.054h1.975l4.774,14.054H461.18Zm-.441-1.419-.671-2.147c-.518-1.592-.958-3.125-1.418-4.755h-.077c-.441,1.649-.9,3.163-1.4,4.755l-.69,2.147Z" transform="translate(-180.719 -88.567)" fill="#757474"/>
    <path id="패스_53" data-name="패스 53" d="M472.473,232.4c0-3.47,2.358-5.484,5.023-5.484a4.45,4.45,0,0,1,3.049,1.227l-.9,1.17a3.023,3.023,0,0,0-2.09-.939c-1.878,0-3.259,1.63-3.259,4.026s1.3,3.988,3.221,3.988a3.67,3.67,0,0,0,2.454-1.035l.748,1.17a4.962,4.962,0,0,1-3.355,1.323c-2.761,0-4.889-1.994-4.889-5.445" transform="translate(-189.099 -90.819)" fill="#757474"/>
    <path id="패스_54" data-name="패스 54" d="M489.178,232.609v-5.771h-1.553v-1.323l1.63-.1.211-2.914h1.457v2.914h2.818v1.419h-2.818v5.809c0,1.285.4,2.013,1.61,2.013a3.679,3.679,0,0,0,1.188-.269l.345,1.3a6.568,6.568,0,0,1-1.917.383c-2.224,0-2.971-1.381-2.971-3.47" transform="translate(-195.163 -89.054)" fill="#757474"/>
    <path id="패스_55" data-name="패스 55" d="M501.211,221.143a1.211,1.211,0,0,1,2.416,0,1.211,1.211,0,0,1-2.416,0m.326,3.278h1.745v10.411h-1.745Z" transform="translate(-200.601 -88.056)" fill="#757474"/>
    <path id="패스_56" data-name="패스 56" d="M509.235,232.4c0-3.47,2.282-5.484,4.832-5.484s4.832,2.013,4.832,5.484c0,3.451-2.281,5.445-4.832,5.445s-4.832-1.994-4.832-5.445m7.861,0c0-2.4-1.227-4.026-3.029-4.026s-3.01,1.63-3.01,4.026,1.208,3.988,3.01,3.988S517.1,234.8,517.1,232.4" transform="translate(-203.812 -90.819)" fill="#757474"/>
    <path id="패스_57" data-name="패스 57" d="M529.916,227.185h1.438l.153,1.5h.058a4.994,4.994,0,0,1,3.49-1.764c2.186,0,3.183,1.419,3.183,4.084v6.6h-1.745V231.23c0-1.956-.594-2.78-1.975-2.78-1.074,0-1.8.537-2.857,1.591V237.6h-1.745Z" transform="translate(-212.089 -90.819)" fill="#757474"/>
    <path id="패스_58" data-name="패스 58" d="M61.123,55.084l-36.841-6.2-.671,33.325,27.8-2.512V97.955l-27.8-2.68.838,40.862H0L1.34,86.4,0,36.5H64.976Z" transform="translate(0 -14.607)" fill="#4c9897"/>
    <path id="패스_59" data-name="패스 59" d="M159.569,139.236l1.34,38.182H135.956l1-36.842L99.952,90.336l20.765-14.4,13.062,21.6,18.756,27.3,16.914-28.469L180.5,75.935l14.9,9.043Z" transform="translate(-40.004 -30.392)" fill="#edcf60"/>
    <path id="패스_60" data-name="패스 60" d="M330.055,45.048,314.482,0H290.535L274.792,46.22,255.2,96.459l16.412,5.359,6.364-20.933h40.862l5.86,20.933,25.79-7.87Zm-37.228,6.447a2.9,2.9,0,1,1-2.9,2.9,2.9,2.9,0,0,1,2.9-2.9m7.493,19.842c-9.294,0-10.861-7-10.861-7h22.87s-2.715,7-12.01,7m11.714-14.415a13.638,13.638,0,0,1-6.836-2.736.611.611,0,0,1-.1-.744l2.149-2.917a.628.628,0,0,1,.839-.22.618.618,0,0,1,.22.84l-1.823,2.475a12.222,12.222,0,0,0,5.547,2.074.629.629,0,0,1,.614.614.617.617,0,0,1-.614.614" transform="translate(-102.139)" fill="#507ab3"/>
  </g>
</svg>
