<svg id="main_logo" xmlns="http://www.w3.org/2000/svg" xmlns:xlink="http://www.w3.org/1999/xlink" width="235.801" height="106.298" viewBox="0 0 235.801 106.298">
  <defs>
    <clipPath id="clip-path">
      <rect id="사각형_54" data-name="사각형 54" width="235.801" height="106.298" fill="none"/>
    </clipPath>
  </defs>
  <path id="패스_35" data-name="패스 35" d="M255.2,186.791h5.863v1.081h-4.574v3.438h3.881v1.081h-3.881v4.56H255.2Z" transform="translate(-144.538 -105.794)" fill="#757474"/>
  <g id="그룹_61" data-name="그룹 61">
    <g id="그룹_60" data-name="그룹 60" clip-path="url(#clip-path)">
      <path id="패스_36" data-name="패스 36" d="M270.8,196.382c0-2.509,1.65-3.965,3.493-3.965s3.493,1.456,3.493,3.965-1.65,3.937-3.493,3.937-3.493-1.442-3.493-3.937m5.684,0c0-1.733-.887-2.911-2.19-2.911s-2.176,1.178-2.176,2.911.873,2.883,2.176,2.883,2.19-1.15,2.19-2.883" transform="translate(-153.374 -108.98)" fill="#757474"/>
      <path id="패스_37" data-name="패스 37" d="M291.48,192.611h1.04l.111,1.372h.042a2.6,2.6,0,0,1,2.135-1.567,1.6,1.6,0,0,1,.8.167l-.235,1.109a1.787,1.787,0,0,0-.735-.124c-.624,0-1.4.444-1.9,1.733v4.838H291.48Z" transform="translate(-165.087 -108.98)" fill="#757474"/>
      <path id="패스_38" data-name="패스 38" d="M311.121,193l-3.05-6.21h1.372l1.3,2.869c.333.748.637,1.455,1,2.218h.055c.361-.763.707-1.47,1.012-2.218l1.317-2.869h1.331L312.41,193v3.951h-1.289Z" transform="translate(-174.484 -105.794)" fill="#757474"/>
      <path id="패스_39" data-name="패스 39" d="M325.235,196.382c0-2.509,1.65-3.965,3.493-3.965s3.493,1.456,3.493,3.965-1.65,3.937-3.493,3.937-3.493-1.442-3.493-3.937m5.684,0c0-1.733-.887-2.911-2.19-2.911s-2.176,1.178-2.176,2.911.873,2.883,2.176,2.883,2.19-1.15,2.19-2.883" transform="translate(-184.205 -108.98)" fill="#757474"/>
      <path id="패스_40" data-name="패스 40" d="M345.694,197.633v-4.769h1.261v4.616c0,1.4.416,2,1.414,2,.776,0,1.317-.374,2.038-1.275v-5.337h1.261v7.527h-1.054l-.1-1.178h-.042a3.23,3.23,0,0,1-2.5,1.359c-1.581,0-2.287-1.026-2.287-2.939" transform="translate(-195.793 -109.233)" fill="#757474"/>
      <path id="패스_41" data-name="패스 41" d="M365.322,192.611h1.04l.111,1.372h.042a2.6,2.6,0,0,1,2.135-1.567,1.6,1.6,0,0,1,.8.167l-.235,1.109a1.787,1.787,0,0,0-.735-.124c-.624,0-1.4.444-1.9,1.733v4.838h-1.261Z" transform="translate(-206.909 -108.98)" fill="#757474"/>
      <path id="패스_42" data-name="패스 42" d="M261.2,228.346h-3.714l-.985,3.1h-1.3l3.452-10.161h1.428l3.451,10.161h-1.358Zm-.318-1.026-.486-1.552c-.374-1.151-.693-2.26-1.025-3.438h-.056c-.319,1.192-.652,2.287-1.012,3.438l-.5,1.552Z" transform="translate(-144.538 -125.333)" fill="#757474"/>
      <path id="패스_43" data-name="패스 43" d="M277.448,227.11h1.04l.111,1.095h.042a3.309,3.309,0,0,1,2.343-1.289,1.985,1.985,0,0,1,2.079,1.442,3.558,3.558,0,0,1,2.481-1.442c1.552,0,2.287,1.026,2.287,2.953v4.769h-1.262v-4.6c0-1.414-.443-2.01-1.4-2.01a2.781,2.781,0,0,0-1.9,1.15v5.461h-1.261v-4.6c0-1.414-.444-2.01-1.4-2.01a2.78,2.78,0,0,0-1.9,1.15v5.461h-1.261Z" transform="translate(-157.14 -128.52)" fill="#757474"/>
      <path id="패스_44" data-name="패스 44" d="M306.824,232.133v-4.769h1.261v4.616c0,1.4.416,2,1.414,2,.776,0,1.317-.374,2.038-1.275v-5.337H312.8v7.527h-1.054l-.1-1.178h-.042a3.23,3.23,0,0,1-2.5,1.359c-1.581,0-2.287-1.026-2.287-2.939" transform="translate(-173.778 -128.773)" fill="#757474"/>
      <path id="패스_45" data-name="패스 45" d="M324.5,233.778l.624-.832a3.412,3.412,0,0,0,2.231.887c1,0,1.483-.527,1.483-1.178,0-.763-.887-1.109-1.719-1.428-1.054-.388-2.246-.9-2.246-2.176,0-1.192.957-2.135,2.592-2.135a3.9,3.9,0,0,1,2.342.846l-.61.818a2.833,2.833,0,0,0-1.733-.665c-.943,0-1.372.5-1.372,1.081,0,.721.818.984,1.663,1.3,1.1.416,2.3.859,2.3,2.287,0,1.22-.97,2.232-2.745,2.232a4.539,4.539,0,0,1-2.814-1.04" transform="translate(-183.79 -128.52)" fill="#757474"/>
      <path id="패스_46" data-name="패스 46" d="M340.1,230.882c0-2.44,1.65-3.965,3.4-3.965,1.913,0,2.994,1.386,2.994,3.535a4.988,4.988,0,0,1-.055.721h-5.074a2.494,2.494,0,0,0,2.5,2.634,3.245,3.245,0,0,0,1.885-.6l.457.832a4.479,4.479,0,0,1-2.5.776,3.6,3.6,0,0,1-3.6-3.936m5.282-.61c0-1.525-.693-2.342-1.872-2.342a2.315,2.315,0,0,0-2.162,2.342Z" transform="translate(-192.625 -128.52)" fill="#757474"/>
      <path id="패스_47" data-name="패스 47" d="M359.121,227.11h1.04l.111,1.095h.042a3.309,3.309,0,0,1,2.343-1.289,1.985,1.985,0,0,1,2.079,1.442,3.558,3.558,0,0,1,2.481-1.442c1.552,0,2.287,1.026,2.287,2.953v4.769h-1.262v-4.6c0-1.414-.443-2.01-1.4-2.01a2.781,2.781,0,0,0-1.9,1.15v5.461h-1.261v-4.6c0-1.414-.444-2.01-1.4-2.01a2.78,2.78,0,0,0-1.9,1.15v5.461h-1.261Z" transform="translate(-203.397 -128.52)" fill="#757474"/>
      <path id="패스_48" data-name="패스 48" d="M387.411,230.882c0-2.44,1.65-3.965,3.4-3.965,1.913,0,2.994,1.386,2.994,3.535a4.992,4.992,0,0,1-.055.721h-5.074a2.494,2.494,0,0,0,2.5,2.634,3.245,3.245,0,0,0,1.885-.6l.457.832a4.479,4.479,0,0,1-2.5.776,3.6,3.6,0,0,1-3.6-3.936m5.282-.61c0-1.525-.693-2.342-1.872-2.342a2.315,2.315,0,0,0-2.162,2.342Z" transform="translate(-219.42 -128.52)" fill="#757474"/>
      <path id="패스_49" data-name="패스 49" d="M406.43,227.11h1.04l.111,1.081h.042a3.611,3.611,0,0,1,2.523-1.275c1.58,0,2.3,1.026,2.3,2.953v4.769h-1.261v-4.6c0-1.414-.43-2.01-1.428-2.01a2.863,2.863,0,0,0-2.065,1.15v5.461H406.43Z" transform="translate(-230.192 -128.52)" fill="#757474"/>
      <path id="패스_50" data-name="패스 50" d="M425.008,229.81v-4.172h-1.123v-.957l1.178-.069.152-2.107h1.054v2.107h2.038v1.026h-2.038v4.2c0,.929.291,1.456,1.164,1.456a2.662,2.662,0,0,0,.859-.194l.25.943a4.748,4.748,0,0,1-1.386.277c-1.608,0-2.149-1-2.149-2.509" transform="translate(-240.078 -126.021)" fill="#757474"/>
      <path id="패스_51" data-name="패스 51" d="M441.083,231.832a.916.916,0,1,1,.915.957.932.932,0,0,1-.915-.957" transform="translate(-249.819 -130.747)" fill="#757474"/>
      <path id="패스_52" data-name="패스 52" d="M457.538,228.346h-3.715l-.984,3.1h-1.3l3.452-10.161h1.428l3.452,10.161h-1.359Zm-.319-1.026-.485-1.552c-.374-1.151-.693-2.26-1.026-3.438h-.056c-.319,1.192-.652,2.287-1.012,3.438l-.5,1.552Z" transform="translate(-255.739 -125.333)" fill="#757474"/>
      <path id="패스_53" data-name="패스 53" d="M472.473,230.881a3.665,3.665,0,0,1,3.632-3.965,3.217,3.217,0,0,1,2.2.887l-.651.846a2.185,2.185,0,0,0-1.511-.679c-1.358,0-2.356,1.178-2.356,2.911s.943,2.883,2.329,2.883a2.653,2.653,0,0,0,1.774-.748l.541.846a3.587,3.587,0,0,1-2.426.957c-2,0-3.535-1.442-3.535-3.937" transform="translate(-267.597 -128.52)" fill="#757474"/>
      <path id="패스_54" data-name="패스 54" d="M488.748,229.81v-4.172h-1.123v-.957l1.178-.069.153-2.107h1.054v2.107h2.037v1.026h-2.037v4.2c0,.929.291,1.456,1.164,1.456a2.66,2.66,0,0,0,.859-.194l.25.943a4.748,4.748,0,0,1-1.386.277c-1.608,0-2.148-1-2.148-2.509" transform="translate(-276.179 -126.021)" fill="#757474"/>
      <path id="패스_55" data-name="패스 55" d="M501.211,220.83a.875.875,0,0,1,1.747,0,.875.875,0,0,1-1.747,0m.236,2.37h1.261v7.527h-1.261Z" transform="translate(-283.874 -124.609)" fill="#757474"/>
      <path id="패스_56" data-name="패스 56" d="M509.235,230.881c0-2.509,1.65-3.965,3.493-3.965s3.493,1.456,3.493,3.965-1.649,3.937-3.493,3.937-3.493-1.442-3.493-3.937m5.684,0c0-1.733-.887-2.911-2.19-2.911s-2.176,1.178-2.176,2.911.873,2.883,2.176,2.883,2.19-1.15,2.19-2.883" transform="translate(-288.418 -128.52)" fill="#757474"/>
      <path id="패스_57" data-name="패스 57" d="M529.916,227.11h1.04l.111,1.081h.042a3.61,3.61,0,0,1,2.523-1.275c1.58,0,2.3,1.026,2.3,2.953v4.769h-1.261v-4.6c0-1.414-.43-2.01-1.428-2.01a2.863,2.863,0,0,0-2.065,1.15v5.461h-1.261Z" transform="translate(-300.131 -128.52)" fill="#757474"/>
      <path id="패스_58" data-name="패스 58" d="M44.191,49.935l-26.635-4.48-.485,24.093,20.1-1.816v13.2l-20.1-1.937.606,29.542H0L.969,72.576,0,36.5H46.977Z" transform="translate(0 -20.67)" fill="#4c9897"/>
      <path id="패스_59" data-name="패스 59" d="M143.054,121.7l.969,27.6H125.982l.726-26.636L99.952,86.347l15.013-10.412,9.443,15.618,13.56,19.735L150.2,90.706l7.991-14.771,10.774,6.538Z" transform="translate(-56.61 -43.008)" fill="#edcf60"/>
      <path id="패스_60" data-name="패스 60" d="M309.319,32.569,298.06,0H280.746L269.364,33.416,255.2,69.739l11.866,3.874,4.6-15.134h29.543l4.237,15.134,18.646-5.69ZM282.4,37.23a2.1,2.1,0,1,1-2.1,2.1,2.1,2.1,0,0,1,2.1-2.1m5.417,14.346c-6.719,0-7.852-5.059-7.852-5.059H296.5s-1.963,5.059-8.683,5.059m8.469-10.422a9.86,9.86,0,0,1-4.942-1.978.442.442,0,0,1-.069-.538l1.554-2.109a.454.454,0,0,1,.607-.159.447.447,0,0,1,.159.607l-1.318,1.79a8.837,8.837,0,0,0,4.01,1.5.455.455,0,0,1,.444.444.446.446,0,0,1-.444.444" transform="translate(-144.538)" fill="#507ab3"/>
    </g>
  </g>
</svg>
