<svg xmlns="http://www.w3.org/2000/svg" xmlns:xlink="http://www.w3.org/1999/xlink" width="359" height="321.367" viewBox="0 0 359 321.367">
  <defs>
    <clipPath id="clip-path">
      <rect id="사각형_62" data-name="사각형 62" width="359" height="321.367" fill="none"/>
    </clipPath>
  </defs>
  <g id="paper_359" transform="translate(0.001)">
    <g id="그룹_108" data-name="그룹 108" transform="translate(-0.001 0)" clip-path="url(#clip-path)">
      <path id="패스_64" data-name="패스 64" d="M312.574,150.429c-23.417,21.129-36.643,30.789-51.034,24.034-6.048-2.839-15.44-10.731-19.578-21.8-6.726-17.983,8.2-77.015,8.931-97.556,1.4-39.66-47.043-41.663-46.51-.814.163,12.363.577,66.241-1.227,75.266s-12.824,9-16.287-.393c-6.606-17.916-12.792-65.42-18.764-93.176-7.847-36.479-63.933-24.824-49.944,14.94,14.823,42.136,32.3,86.3,32.876,91.449s-3.782,20.074-13.952,7.969S102.061,99.635,88.687,73.7c-14.175-27.48-54.373-1.626-34.564,27.658,24.4,36.079,45.72,54.934,52.853,66.774s-4.266,13.912-12.191,11.183-32.019-17.713-50.24-31.059C20.381,130.56.8,166.064,25.221,180.545c23.57,13.977,57.376,33.42,57.376,33.42,9.342,7.667,15.422,15.575,22.1,27.422,12.059,21.385,22.481,34.092,32.788,42.192-.082,1.628-.06,2.759-.06,2.759s-.983,26.639,37.816,37.577c37.147,10.472,89.557-7.594,91.865-41.464,0,0,.01-.487.012-1.287,12.182-9.473,24.6-23.918,33.988-46.39,14-33.518,36.929-48.407,53.337-60.828,27.491-20.813-5.016-56.778-41.874-23.519" transform="translate(-9.852 -9.858)" fill="#fff"/>
      <path id="패스_65" data-name="패스 65" d="M197.553,326.716a84.107,84.107,0,0,1-22.7-2.985c-20.09-5.664-29.331-15.612-33.546-22.959-4.572-7.972-4.38-14.7-4.378-14.766,0,0-.021-1.111.056-2.684-11.015-8.675-21.428-22.084-32.766-42.188-7-12.419-13.191-20.1-22.068-27.38-.318-.18-34.056-19.589-57.358-33.407-7.506-4.451-11.614-11.459-11.272-19.225.316-7.171,4.419-13.676,10.454-16.571,6.176-2.963,13.387-1.8,20.305,3.265,18.542,13.582,42.469,28.377,50.2,31.039,4.57,1.574,10.752,1.61,13.205-1.423,1.71-2.115,1.3-5.414-1.189-9.543-2.858-4.744-8.093-10.726-14.721-18.3-9.925-11.34-23.519-26.872-38.128-48.469-8.344-12.334-5.25-22.274-2.662-27.1,4-7.473,11.993-12.467,19.916-12.467h.148c7.35.057,13.536,4.234,17.417,11.759,13.455,26.087,38.262,64.575,48.381,76.616,3.247,3.865,6.143,5.289,8.607,4.234,3.807-1.631,5.456-8.755,5.084-12.091-.318-2.856-6.065-18.318-13.343-37.893-5.78-15.547-12.973-34.9-19.525-53.523-4.033-11.465-2.574-21.722,4.11-28.881,6.549-7.015,17.482-9.922,27.2-7.235s16.609,10.373,18.915,21.1c2.188,10.171,4.361,22.734,6.66,36.035,3.892,22.507,7.916,45.781,12.1,57.121,1.91,5.178,6.058,7.238,9.316,6.984,3.367-.263,5.93-2.78,6.687-6.569,1.695-8.482,1.445-58.413,1.223-75.235-.164-12.551,4.457-22.453,12.679-27.166a21.323,21.323,0,0,1,21.6.363c8.4,5.068,12.967,15.136,12.526,27.621-.252,7.09-2.15,18.5-4.348,31.721-4,24.071-8.986,54.029-4.593,65.777,3.914,10.469,12.853,18.6,19.5,21.718,13.74,6.45,26.251-1.795,50.872-24.01l.1.11-.1-.11c6.951-6.273,14.1-10.434,21.255-12.369a29.392,29.392,0,0,1,17.544.281c7.2,2.56,12.321,8.381,13.372,15.192,1.141,7.392-2.544,14.916-10.109,20.644-1.416,1.072-2.857,2.145-4.383,3.281-16.1,11.983-36.129,26.9-48.907,57.485-8.191,19.613-19.622,35.226-33.977,46.406,0,.758-.012,1.217-.012,1.217-.777,11.395-7.246,21.685-18.709,29.766-13.571,9.566-32.408,14.822-50.644,14.823M31.041,143.24a15.9,15.9,0,0,0-6.937,1.577c-5.938,2.848-9.976,9.253-10.287,16.317-.337,7.654,3.719,14.563,11.127,18.957,23.3,13.817,57.037,33.224,57.374,33.419,8.928,7.324,15.136,15.024,22.159,27.478,11.338,20.106,21.745,33.5,32.75,42.148l.061.047,0,.077c-.08,1.6-.06,2.737-.059,2.748,0,.075-.189,6.732,4.348,14.632,4.188,7.294,13.376,17.172,33.359,22.806,23.7,6.682,53.76,1.832,73.093-11.8,11.387-8.027,17.813-18.241,18.584-29.536,0,0,.009-.485.012-1.277v-.072l.057-.044c14.341-11.151,25.761-26.739,33.942-46.33,12.809-30.664,32.878-45.6,49-57.609,1.525-1.136,2.966-2.208,4.382-3.28,7.475-5.659,11.118-13.081,9.994-20.362-1.035-6.7-6.084-12.434-13.178-14.958-11.474-4.081-25.506.3-38.5,12.029-11.964,10.8-20.978,18.324-28.932,22.5-8.361,4.384-15.228,4.866-22.264,1.563-6.7-3.147-15.711-11.337-19.654-21.883-4.421-11.822.569-41.823,4.578-65.929,2.2-13.207,4.093-24.613,4.344-31.684.437-12.374-4.076-22.345-12.382-27.356a21.026,21.026,0,0,0-21.3-.36c-8.125,4.658-12.692,14.464-12.53,26.905.009.649.8,65.158-1.229,75.3-.784,3.924-3.449,6.532-6.954,6.806-3.374.264-7.654-1.853-9.618-7.177-4.191-11.366-8.218-34.653-12.111-57.173-2.3-13.3-4.471-25.858-6.658-36.023-2.283-10.611-9.1-18.218-18.7-20.872-9.62-2.658-20.433.216-26.908,7.152-6.6,7.074-8.041,17.224-4.046,28.58,6.551,18.624,13.744,37.972,19.524,53.518,7.569,20.361,13.038,35.071,13.36,37.964.379,3.413-1.331,10.712-5.263,12.4-2.6,1.112-5.609-.339-8.95-4.316C126.493,138.063,101.665,99.548,88.2,73.445c-3.829-7.422-9.922-11.541-17.156-11.6H70.9c-7.817,0-15.7,4.931-19.654,12.311-2.555,4.768-5.61,14.59,2.646,26.8,14.6,21.583,28.185,37.106,38.106,48.44,6.638,7.584,11.881,13.575,14.752,18.341,3.232,5.363,2.418,8.334,1.166,9.882-2.538,3.138-8.866,3.124-13.532,1.517-7.753-2.67-31.718-17.484-50.279-31.08-4.355-3.19-8.824-4.813-13.065-4.813" transform="translate(-9.5 -9.531)" fill="#5ca7a7"/>
      <path id="패스_66" data-name="패스 66" d="M198.84,295.284a4.149,4.149,0,0,1-.035-8.3c9.547-.082,26.277-3.362,32.768-5.891,25.138-9.788,43.93-29.229,55.856-57.78a119.57,119.57,0,0,1,24.131-37.079c8.894-9.333,18.075-16.167,26.175-22.2,1.519-1.131,2.953-2.2,4.356-3.26,6.358-4.814,9.361-10.7,8.455-16.562-.822-5.327-4.772-9.738-10.565-11.8-4.751-1.69-17.624-3.98-34.48,11.23-12.2,11-21.427,18.7-29.754,23.068-9.448,4.954-17.654,5.476-25.822,1.641-6.333-2.973-15.446-11.038-20.284-23.98-4.864-13.007-.4-42.952,3.543-69.372,1.788-11.987,3.477-23.309,3.711-29.906.385-10.879-3.424-19.55-10.451-23.789A17.023,17.023,0,0,0,209.2,21c-6.828,3.914-10.662,12.436-10.519,23.382.008.653.834,65.421-1.307,76.133-1.132,5.667-5.28,9.6-10.565,10.01-.309.024-.618.036-.925.036-5.505,0-10.554-3.842-12.758-9.817-4.317-11.709-8.376-35.178-12.3-57.876C158.532,49.608,156.367,37.087,154.2,27c-2.681-12.466-11.087-16.539-15.859-17.858-8.223-2.272-17.433.15-22.918,6.026-5.538,5.931-6.673,14.64-3.2,24.522,6.54,18.591,13.726,37.92,19.5,53.451,8.922,24,13.226,35.677,13.586,38.916.474,4.267-1.334,13.8-7.663,16.517-3.032,1.3-7.85,1.412-13.589-5.419-10.254-12.2-35.339-51.1-48.91-77.41-3.991-7.738-9.616-9.4-13.632-9.432H61.4c-6.381,0-12.849,4.086-16.125,10.2-3.677,6.86-2.812,14.909,2.434,22.664,14.46,21.377,27.951,36.791,37.8,48.047,6.768,7.733,12.114,13.841,15.168,18.911,4.427,7.347,2.905,11.92.849,14.463-3.9,4.817-12.034,4.82-17.945,2.784-9.068-3.122-34.335-19.178-51.341-31.635-5.579-4.086-11.228-5.1-15.908-2.857a14.963,14.963,0,0,0-8.02,12.886c-.159,3.6.821,10.388,9.171,15.34,23.276,13.8,56.991,33.2,57.328,33.392a4.18,4.18,0,0,1,.564.389c9.325,7.652,15.8,15.668,23.085,28.591,23.454,41.587,40.335,48.907,59.967,54.153a4.149,4.149,0,1,1-2.142,8.017c-10.237-2.736-21.241-6.517-32.341-15.58-11.045-9.018-21.439-22.527-32.711-42.514C84.565,221.74,78.7,214.408,70.375,207.528c-3.423-1.97-34.977-20.142-57.122-33.274C4.436,169.025-.385,160.7.024,151.411c.38-8.626,5.373-16.477,12.721-20,4.384-2.1,13.383-4.426,24.4,3.644,17.96,13.156,41.84,27.97,49.138,30.484,4.075,1.4,7.99.835,8.792-.156.342-.423.224-2.094-1.505-4.962-2.675-4.441-7.807-10.3-14.3-17.729C69.27,131.27,55.582,115.631,40.833,93.827c-6.954-10.281-8-21.665-2.875-31.233C42.714,53.722,51.9,48.016,61.394,48.016h.187c8.779.069,16.412,5.145,20.941,13.926,13.346,25.877,37.9,63.985,47.888,75.876,2.433,2.9,3.814,3.2,3.968,3.13,1.338-.573,2.968-5.416,2.684-7.972-.354-2.611-6.554-19.287-13.117-36.941C118.16,80.473,110.96,61.106,104.4,42.446c-6.142-17.459.471-28.131,4.959-32.939a29.993,29.993,0,0,1,14.422-8.445,32.354,32.354,0,0,1,16.772.084c11.2,3.094,19.13,11.882,21.761,24.111,2.206,10.25,4.385,22.853,6.692,36.195,3.861,22.33,7.854,45.421,11.909,56.418,1.186,3.216,3.491,4.518,5.251,4.38,1.574-.123,2.666-1.318,3.075-3.364,1.507-7.539,1.423-53.379,1.146-74.4-.183-14.047,5.171-25.233,14.689-30.69a25.325,25.325,0,0,1,25.658.408c9.682,5.841,14.952,17.208,14.457,31.187-.25,7.066-1.894,18.082-3.8,30.837-3.415,22.892-8.091,54.244-3.978,65.242,3.69,9.871,10.9,16.963,16.038,19.375,5.777,2.712,11.293,2.27,18.443-1.479,7.555-3.961,16.333-11.309,28.049-21.88,7.423-6.7,15.125-11.16,22.891-13.261a33.355,33.355,0,0,1,19.929.374c8.584,3.054,14.709,10.085,15.985,18.351,1.372,8.891-2.873,17.8-11.648,24.443-1.429,1.082-2.877,2.16-4.409,3.3-15.7,11.691-35.25,26.242-47.6,55.818-12.827,30.711-33.183,51.677-60.5,62.315-7.312,2.848-24.871,6.363-35.708,6.456Z" transform="translate(0 0.002)" fill="#5ca7a7"/>
      <path id="패스_67" data-name="패스 67" d="M613.258,687.412a4.151,4.151,0,0,1-3.845-2.588,55.055,55.055,0,0,1-2.328-35.355c2.458-9.417,7.33-18.853,14.481-28.049A123.985,123.985,0,0,1,648.374,596.2a4.149,4.149,0,0,1,4.552,6.938,117.646,117.646,0,0,0-24.937,23.546c-14.468,18.687-18.132,37.2-10.888,55.02a4.151,4.151,0,0,1-3.842,5.712" transform="translate(-425.855 -419.034)" fill="#5ca7a7"/>
      <path id="패스_68" data-name="패스 68" d="M481.156,958.753a86.819,86.819,0,0,1-23.439-3.08c-21.379-6.027-31.439-16.877-36.113-24.917-5.228-8.992-5.12-16.66-5.112-16.982l8.3.184v-.03a27.778,27.778,0,0,0,4.24,13.081c5.662,9.417,16.361,16.567,30.94,20.677,22.409,6.317,50.848,1.715,69.161-11.193,7.3-5.143,16.178-13.967,17.052-26.8a4.149,4.149,0,0,1,8.279.564c-.868,12.734-7.974,24.15-20.55,33.015-14.166,9.985-33.795,15.476-52.754,15.477" transform="translate(-293.063 -637.386)" fill="#5ca7a7"/>
      <path id="패스_69" data-name="패스 69" d="M384.575,656.356a27.969,27.969,0,0,1-4.935-.416,4.149,4.149,0,1,1,1.463-8.168c9.958,1.784,26.529-4.43,47.922-17.968a327.184,327.184,0,0,0,30.388-21.938,4.149,4.149,0,0,1,5.31,6.376,329.251,329.251,0,0,1-31.187,22.526c-20.556,13.018-36.989,19.587-48.962,19.587" transform="translate(-264.728 -427.048)" fill="#5ca7a7"/>
    </g>
  </g>
</svg>
