<svg xmlns="http://www.w3.org/2000/svg" xmlns:xlink="http://www.w3.org/1999/xlink" width="359.415" height="321.738" viewBox="0 0 359.415 321.738">
  <defs>
    <clipPath id="clip-path">
      <rect id="사각형_62" data-name="사각형 62" width="359.415" height="321.738" fill="none"/>
    </clipPath>
  </defs>
  <g id="paper" transform="translate(0.001)">
    <g id="그룹_108" data-name="그룹 108" transform="translate(-0.001 0)" clip-path="url(#clip-path)">
      <path id="패스_64" data-name="패스 64" d="M312.919,150.586c-23.444,21.153-36.685,30.825-51.093,24.062-6.055-2.843-15.457-10.743-19.6-21.826-6.734-18,8.213-77.1,8.942-97.668,1.4-39.706-47.1-41.711-46.564-.815.163,12.377.578,66.318-1.228,75.353s-12.839,9.008-16.306-.393c-6.614-17.937-12.807-65.5-18.785-93.284-7.856-36.521-64.007-24.853-50,14.958,14.84,42.185,32.341,86.4,32.914,91.554s-3.787,20.1-13.968,7.979S102.162,99.734,88.773,73.773c-14.191-27.512-54.436-1.628-34.6,27.69,24.433,36.121,45.773,55,52.914,66.852s-4.271,13.928-12.2,11.2-32.056-17.733-50.3-31.1C20.388,130.695.788,166.239,25.234,180.738c23.6,13.993,57.443,33.458,57.443,33.458,9.353,7.675,15.44,15.593,22.129,27.454,12.073,21.41,22.507,34.131,32.826,42.241-.082,1.629-.06,2.762-.06,2.762s-.984,26.669,37.859,37.621c37.19,10.484,89.66-7.6,91.971-41.512,0,0,.01-.488.012-1.288,12.2-9.483,24.631-23.945,34.027-46.444,14.017-33.557,36.972-48.463,53.4-60.9,27.523-20.837-5.022-56.843-41.922-23.546" transform="translate(-9.848 -9.854)" fill="#fff"/>
      <path id="패스_65" data-name="패스 65" d="M197.765,327.078a84.2,84.2,0,0,1-22.727-2.988c-20.114-5.671-29.365-15.63-33.584-22.986-4.578-7.981-4.385-14.716-4.383-14.783,0,0-.021-1.112.056-2.687-11.028-8.685-21.453-22.11-32.8-42.237-7.011-12.433-13.206-20.119-22.094-27.412-.318-.181-34.1-19.612-57.424-33.446-7.514-4.456-11.628-11.472-11.285-19.247.316-7.18,4.425-13.692,10.466-16.59,6.183-2.966,13.4-1.805,20.329,3.268,18.564,13.6,42.518,28.409,50.258,31.075,4.575,1.575,10.764,1.612,13.22-1.425,1.712-2.117,1.3-5.421-1.191-9.554-2.861-4.749-8.1-10.738-14.738-18.32-9.937-11.354-23.546-26.9-38.172-48.525-8.353-12.349-5.256-22.3-2.666-27.133C55.038,66.605,63.036,61.6,70.968,61.6h.148c7.359.058,13.551,4.239,17.437,11.772,13.47,26.118,38.307,64.649,48.437,76.7,3.251,3.869,6.15,5.3,8.617,4.239,3.811-1.633,5.462-8.766,5.09-12.105-.318-2.86-6.072-18.339-13.359-37.937-5.786-15.565-12.988-34.936-19.548-53.584-4.038-11.478-2.577-21.747,4.114-28.914,6.556-7.023,17.5-9.933,27.235-7.244s16.628,10.385,18.937,21.12c2.191,10.183,4.366,22.761,6.668,36.077,3.9,22.533,7.925,45.834,12.111,57.187,1.912,5.184,6.065,7.246,9.327,6.992,3.371-.264,5.937-2.784,6.694-6.577,1.7-8.492,1.446-58.48,1.225-75.322-.164-12.566,4.463-22.479,12.693-27.2a21.348,21.348,0,0,1,21.627.363c8.411,5.074,12.982,15.153,12.54,27.652-.252,7.1-2.152,18.526-4.353,31.758-4.008,24.1-9,54.092-4.6,65.853,3.918,10.481,12.868,18.618,19.525,21.744,13.756,6.458,26.282-1.8,50.931-24.038l.1.11-.1-.11c6.96-6.28,14.119-10.446,21.28-12.384a29.426,29.426,0,0,1,17.564.282c7.205,2.563,12.335,8.391,13.387,15.209,1.142,7.4-2.547,14.933-10.12,20.667-1.418,1.073-2.861,2.147-4.388,3.285-16.115,12-36.171,26.928-48.963,57.552-8.2,19.635-19.645,35.267-34.016,46.459,0,.759-.012,1.219-.012,1.219-.778,11.408-7.255,21.711-18.731,29.8-13.587,9.577-32.446,14.839-50.7,14.84M31.061,143.39a15.922,15.922,0,0,0-6.945,1.578c-5.945,2.852-9.987,9.264-10.3,16.336-.338,7.663,3.723,14.58,11.14,18.979,23.327,13.833,57.1,33.263,57.441,33.458,8.939,7.333,15.153,15.042,22.184,27.51,11.352,20.129,21.77,33.538,32.788,42.2l.061.047,0,.077c-.08,1.6-.06,2.74-.059,2.752,0,.075-.189,6.739,4.353,14.649,4.193,7.3,13.392,17.192,33.4,22.832,23.73,6.69,53.822,1.834,73.178-11.809,11.4-8.036,17.834-18.262,18.605-29.571,0,0,.009-.485.012-1.278v-.072l.057-.044c14.357-11.164,25.79-26.77,33.981-46.384,12.823-30.7,32.916-45.657,49.06-57.676,1.527-1.137,2.97-2.211,4.387-3.283,7.484-5.666,11.131-13.1,10.006-20.385-1.036-6.71-6.091-12.448-13.193-14.975-11.487-4.086-25.536.3-38.545,12.043-11.978,10.808-21,18.345-28.965,22.521-8.371,4.389-15.245,4.872-22.29,1.565-6.71-3.15-15.73-11.35-19.677-21.908-4.426-11.835.569-41.871,4.584-66.005,2.2-13.222,4.1-24.641,4.349-31.72.438-12.388-4.08-22.371-12.4-27.387a21.05,21.05,0,0,0-21.326-.36c-8.135,4.663-12.707,14.481-12.545,26.936.009.649.8,65.233-1.231,75.384-.785,3.929-3.453,6.539-6.962,6.814-3.378.265-7.663-1.855-9.629-7.185-4.2-11.379-8.227-34.693-12.125-57.239-2.3-13.313-4.476-25.888-6.666-36.065-2.285-10.623-9.111-18.239-18.726-20.9-9.631-2.661-20.457.216-26.94,7.16-6.612,7.082-8.051,17.244-4.051,28.613,6.559,18.646,13.76,38.016,19.546,53.58,7.578,20.384,13.053,35.112,13.376,38.008.38,3.417-1.332,10.724-5.269,12.411-2.6,1.114-5.616-.339-8.961-4.32-10.14-12.067-35-50.627-48.473-76.759C84.457,66.083,78.357,61.959,71.114,61.9h-.146c-7.826,0-15.718,4.937-19.677,12.325C48.732,79,45.674,88.834,53.94,101.053c14.616,21.608,28.218,37.149,38.15,48.5,6.646,7.593,11.894,13.59,14.769,18.362,3.235,5.369,2.42,8.344,1.167,9.894-2.541,3.141-8.876,3.127-13.548,1.519-7.762-2.673-31.754-17.5-50.337-31.116-4.36-3.194-8.834-4.819-13.08-4.819" transform="translate(-9.496 -9.527)" fill="#5ca7a7"/>
      <path id="패스_66" data-name="패스 66" d="M199.07,295.626a4.154,4.154,0,0,1-.035-8.307c9.558-.082,26.307-3.366,32.806-5.9,25.167-9.8,43.981-29.262,55.92-57.847a119.708,119.708,0,0,1,24.159-37.121c8.9-9.343,18.1-16.186,26.2-22.223,1.521-1.132,2.957-2.2,4.361-3.264,6.365-4.819,9.371-10.708,8.465-16.581-.823-5.333-4.777-9.749-10.578-11.812-4.757-1.692-17.644-3.985-34.52,11.243-12.21,11.017-21.452,18.723-29.789,23.095-9.459,4.96-17.674,5.483-25.852,1.643-6.341-2.977-15.463-11.05-20.307-24.008-4.87-13.022-.4-43,3.547-69.452,1.79-12,3.481-23.336,3.715-29.941.385-10.892-3.428-19.573-10.463-23.816a17.043,17.043,0,0,0-17.265-.315c-6.836,3.918-10.674,12.451-10.531,23.409.008.653.835,65.5-1.308,76.221-1.133,5.674-5.286,9.608-10.577,10.022-.309.024-.619.036-.926.036-5.511,0-10.566-3.846-12.772-9.829C169,109.158,164.939,85.661,161.01,62.938c-2.295-13.272-4.462-25.807-6.635-35.9-2.684-12.48-11.1-16.558-15.877-17.878-8.232-2.275-17.453.15-22.945,6.033-5.544,5.938-6.681,14.657-3.2,24.551C118.9,58.351,126.094,77.7,131.875,93.251c8.932,24.026,13.241,35.718,13.6,38.961.475,4.272-1.335,13.821-7.672,16.536-3.035,1.3-7.859,1.414-13.6-5.426-10.266-12.218-35.38-51.157-48.966-77.5-4-7.747-9.627-9.411-13.648-9.443h-.117c-6.388,0-12.864,4.091-16.144,10.212-3.681,6.868-2.815,14.926,2.437,22.69,14.476,21.4,27.984,36.834,37.846,48.1,6.776,7.742,12.128,13.857,15.186,18.933,4.432,7.356,2.909,11.934.85,14.479-3.9,4.823-12.048,4.826-17.966,2.787-9.078-3.126-34.375-19.2-51.4-31.672-5.585-4.091-11.241-5.107-15.926-2.86a14.98,14.98,0,0,0-8.029,12.9c-.159,3.608.822,10.4,9.182,15.358,23.3,13.819,57.056,33.236,57.394,33.43a4.186,4.186,0,0,1,.564.39c9.335,7.661,15.815,15.687,23.112,28.624,23.481,41.635,40.382,48.963,60.036,54.216A4.154,4.154,0,1,1,156.467,292c-10.249-2.739-21.266-6.525-32.379-15.6-11.058-9.029-21.464-22.553-32.749-42.563C84.663,222,78.787,214.656,70.456,207.768,67.03,205.8,35.438,187.6,13.268,174.455,4.441,169.221-.386,160.885.024,151.586c.38-8.636,5.379-16.5,12.736-20.025,4.389-2.105,13.4-4.431,24.428,3.648,17.98,13.171,41.888,28,49.2,30.519,4.079,1.4,8,.836,8.8-.157.343-.423.224-2.1-1.507-4.968-2.678-4.446-7.816-10.317-14.321-17.749-10.006-11.432-23.71-27.09-38.476-48.919C33.918,83.642,32.869,72.245,38,62.666c4.76-8.883,13.954-14.6,23.462-14.6h.187c8.789.069,16.431,5.151,20.965,13.942,13.361,25.907,37.94,64.059,47.943,75.964,2.436,2.9,3.818,3.2,3.973,3.134,1.339-.574,2.972-5.422,2.687-7.981-.355-2.614-6.561-19.309-13.132-36.984-5.792-15.58-13-34.969-19.572-53.651-6.149-17.479.471-28.164,4.965-32.977A30.028,30.028,0,0,1,123.92,1.064a32.391,32.391,0,0,1,16.791.084c11.212,3.1,19.152,11.9,21.786,24.138,2.208,10.262,4.39,22.879,6.7,36.236,3.865,22.356,7.863,45.473,11.922,56.484,1.188,3.22,3.5,4.523,5.257,4.385,1.576-.123,2.669-1.32,3.079-3.368,1.508-7.547,1.425-53.441,1.148-74.484-.183-14.064,5.177-25.262,14.706-30.725A25.355,25.355,0,0,1,231,14.222c9.693,5.848,14.969,17.228,14.474,31.223-.251,7.074-1.9,18.1-3.8,30.872-3.419,22.919-8.1,54.307-3.983,65.317,3.694,9.883,10.913,16.983,16.056,19.4,5.784,2.715,11.306,2.273,18.464-1.48,7.564-3.966,16.352-11.322,28.081-21.9,7.432-6.706,15.142-11.173,22.917-13.276a33.393,33.393,0,0,1,19.952.374c8.594,3.057,14.726,10.1,16,18.372,1.374,8.9-2.876,17.821-11.661,24.472-1.431,1.083-2.88,2.162-4.414,3.3-15.723,11.7-35.29,26.272-47.659,55.883-12.842,30.747-33.221,51.737-60.571,62.387-7.321,2.851-24.9,6.37-35.75,6.464Z" transform="translate(0 0.002)" fill="#5ca7a7"/>
      <path id="패스_67" data-name="패스 67" d="M613.268,687.518a4.156,4.156,0,0,1-3.85-2.591,55.119,55.119,0,0,1-2.331-35.4c2.461-9.428,7.338-18.875,14.5-28.081A124.125,124.125,0,0,1,648.424,596.2a4.154,4.154,0,0,1,4.557,6.946,117.784,117.784,0,0,0-24.965,23.573c-14.485,18.708-18.153,37.241-10.9,55.084a4.156,4.156,0,0,1-3.846,5.719" transform="translate(-425.648 -418.83)" fill="#5ca7a7"/>
      <path id="패스_68" data-name="패스 68" d="M481.231,958.814a86.92,86.92,0,0,1-23.466-3.083c-21.4-6.034-31.475-16.9-36.155-24.946-5.234-9-5.125-16.679-5.118-17l8.305.185v-.03a27.811,27.811,0,0,0,4.245,13.1c5.668,9.427,16.379,16.586,30.976,20.7,22.435,6.325,50.907,1.717,69.24-11.206,7.3-5.149,16.2-13.983,17.072-26.828a4.154,4.154,0,0,1,8.288.565c-.869,12.749-7.984,24.178-20.574,33.053-14.182,10-33.834,15.494-52.815,15.495" transform="translate(-292.92 -637.076)" fill="#5ca7a7"/>
      <path id="패스_69" data-name="패스 69" d="M384.585,656.413a28,28,0,0,1-4.94-.417,4.154,4.154,0,1,1,1.465-8.177c9.969,1.786,26.56-4.435,47.977-17.989a327.559,327.559,0,0,0,30.423-21.963,4.154,4.154,0,0,1,5.316,6.383A329.632,329.632,0,0,1,433.6,636.8c-20.579,13.033-37.032,19.61-49.018,19.61" transform="translate(-264.599 -426.84)" fill="#5ca7a7"/>
    </g>
  </g>
</svg>
