<svg xmlns="http://www.w3.org/2000/svg" xmlns:xlink="http://www.w3.org/1999/xlink" width="359" height="321.76" viewBox="0 0 359 321.76">
  <defs>
    <clipPath id="clip-path">
      <rect id="사각형_64" data-name="사각형 64" width="302.543" height="321.738" fill="none"/>
    </clipPath>
  </defs>
  <g id="rock_359" transform="translate(-319 -628)">
    <rect id="사각형_78" data-name="사각형 78" width="359" height="321.76" transform="translate(319 628)" fill="none"/>
    <g id="rock" transform="translate(347 628)">
      <g id="그룹_112" data-name="그룹 112" clip-path="url(#clip-path)">
        <path id="패스_79" data-name="패스 79" d="M56.811,261.436c-12.478,40.695,42.762,71.027,103.431,60.911,70.181-11.705,67.941-40.307,62.923-49.62,0,0-.145-.264-.4-.7a114.087,114.087,0,0,0,23.3-11.912c21.7-14.774,59.7-67.5,59.057-87.667-.7-21.98-20.573-67.818-45.574-70.422.056-1,1.407-25.8.075-45.966C258.068,32.52,241.577,4.272,199.1,17.147c-16.2,4.91-20.3,10.4-30.65,9.341l1.477,1.479c-9.333-5.143-21.851-8.09-37.761,1.653-8.012,4.905-17.532,15.972-33.018,18.54S68.435,55.55,59.181,71.4s-28.154,10.471-40.1,42.33C5.6,149.654,18.963,218.342,56.811,261.436" transform="translate(-8.282 -8.256)" fill="#fff"/>
        <path id="패스_80" data-name="패스 80" d="M408.25,408.3a5.7,5.7,0,0,1-1.3-11.244c1.485-.348,3.179-.723,4.973-1.12,13.7-3.03,36.628-8.1,54.931-20.564,9.8-6.671,24.1-22.506,36.426-40.341,12.483-18.056,20.39-34.713,20.144-42.436-.493-15.46-12.436-47.3-29.315-60.061-5.7-4.309-11.29-5.821-16.618-4.494-5.427,1.352-11.412,2.575-17.747,3.869-21.215,4.332-47.618,9.724-54.8,21.816-2.2,3.708-2.5,8.055-.9,13.289,4.038,13.2,12.057,22.566,23.191,27.086,14.063,5.708,32.477,3.291,50.522-6.632a5.7,5.7,0,0,1,5.489,9.983,87.36,87.36,0,0,1-31.432,10.608,57.5,57.5,0,0,1-28.863-3.4c-14.421-5.853-24.726-17.717-29.8-34.309-2.557-8.36-1.885-15.91,2-22.443,9.762-16.425,37.684-22.127,62.319-27.158,6.213-1.269,12.081-2.467,17.271-3.761,8.707-2.17,17.783.064,26.244,6.461,20.087,15.186,33.242,50.3,33.831,68.785.457,14.326-13.688,37.023-22.159,49.277-13.264,19.185-28.356,35.769-39.385,43.28-20.115,13.694-44.383,19.062-58.882,22.27-1.758.389-3.418.757-4.833,1.088a5.734,5.734,0,0,1-1.305.151" transform="translate(-232.283 -128.222)" fill="#5ba7a7"/>
        <path id="패스_81" data-name="패스 81" d="M476.446,99.5q-.162,0-.326-.009a5.7,5.7,0,0,1-5.366-6.008c.014-.251,1.4-25.317.08-45.3-.887-13.417-6.721-25.1-15.607-31.246-9.326-6.452-21.969-7.326-37.577-2.595a107.975,107.975,0,0,0-13.866,5.344c-6.006,2.689-11.191,5.012-19.015,4.213a5.7,5.7,0,1,1,1.157-11.334c4.791.489,7.779-.849,13.2-3.277a119.364,119.364,0,0,1,15.216-5.848c23.792-7.212,38.888-1.736,47.364,4.129A44.9,44.9,0,0,1,476.75,25.8,60.826,60.826,0,0,1,482.2,47.431c1.366,20.7-.014,45.646-.074,46.7a5.7,5.7,0,0,1-5.682,5.375" transform="translate(-225.176 0.001)" fill="#5ba7a7"/>
        <path id="패스_82" data-name="패스 82" d="M164.128,322.236q-1.106,0-2.219-.088c-13.257-1.048-26.764-11.319-46.623-35.453a5.7,5.7,0,1,1,8.8-7.239c17.209,20.914,29.152,30.578,38.723,31.334,5.6.444,11.377-2.148,18.164-8.155,8.295-7.341-2.223-31.337-11.5-52.508L168.974,249c-6.522-14.883-32.942-32.949-42.572-38.655a5.7,5.7,0,0,1,5.8-9.8c1.542.913,37.873,22.594,47.2,43.887l.493,1.125c5.366,12.242,10.915,24.9,13.633,35.819,1.28,5.139,5.174,20.777-5.014,29.794-8.486,7.511-16.3,11.069-24.394,11.07" transform="translate(-67.608 -118.473)" fill="#5ba7a7"/>
        <path id="패스_83" data-name="패스 83" d="M277.288,257.056c-.435,0-.87,0-1.311-.013a5.7,5.7,0,0,1,.225-11.39c11.96.233,20.538-3.326,26.234-10.888,12.922-17.158,7.717-49.757,2.6-66.316-7.457-24.151-42.3-44.358-42.654-44.56A5.7,5.7,0,0,1,268.044,114c1.592.91,39.094,22.623,47.882,51.087,7.143,23.131,10.279,57.054-4.39,76.531-7.717,10.247-19.236,15.437-34.248,15.437" transform="translate(-153.925 -67.17)" fill="#5ba7a7"/>
        <path id="패스_84" data-name="패스 84" d="M100.453,306.679a5.689,5.689,0,0,1-1.593-.228c-16.952-4.927-32.594-14.2-46.494-27.558-12.41-11.929-23.1-26.76-31.783-44.08a197.934,197.934,0,0,1-19.291-63.1C-1.37,150.637.11,131.174,5.462,116.908c7.966-21.238,19.186-27.68,28.2-32.856,5.274-3.028,9.439-5.42,12.316-10.346,10.652-18.243,28.2-23.373,43.957-25.986,9.8-1.625,17.031-7.285,23.41-12.278a83.7,83.7,0,0,1,7.565-5.5c26.149-16.013,44.908-1.643,53.924,5.264,1.173.9,2.547,1.92,4,3,13.622,10.119,36.421,27.055,38.387,48.488,2.069,22.568-4.279,30.358-5.572,31.691l-8.175-7.935a1.6,1.6,0,0,0-.2.221c.042-.054,4.193-5.582,2.6-22.936-1.5-16.362-21.742-31.4-33.835-40.382-1.49-1.107-2.9-2.152-4.138-3.1-10.912-8.359-23.07-15.6-41.046-4.592a76.286,76.286,0,0,0-6.491,4.754c-7.083,5.545-15.9,12.446-28.569,14.547-13.811,2.29-27.729,6.356-35.982,20.492C51.41,87,45.272,90.524,39.336,93.932c-8.2,4.708-16.681,9.577-23.208,26.977-4.714,12.566-5.968,30.1-3.533,49.376a186.433,186.433,0,0,0,18.173,59.424c17.055,34.033,42.365,57.4,71.271,65.8a5.7,5.7,0,0,1-1.587,11.168" transform="translate(0 -13.437)" fill="#5ba7a7"/>
        <path id="패스_85" data-name="패스 85" d="M323.658,456.617a5.7,5.7,0,0,1-5.609-4.742c-2.584-15.187,4.252-30.028,19.769-42.915A104.993,104.993,0,0,1,361.1,394.5a5.7,5.7,0,0,1,4.469,10.479c-.555.239-40.891,17.915-36.285,44.989a5.7,5.7,0,0,1-5.622,6.653" transform="translate(-188.323 -233.71)" fill="#5ba7a7"/>
        <path id="패스_86" data-name="패스 86" d="M575.568,433.349a5.669,5.669,0,0,1-3.045-.887,39.7,39.7,0,0,0-3.476-1.967c-3.905-2.009-5.963-3.5-13.713-12.269a5.7,5.7,0,0,1,8.539-7.542c7.022,7.95,8.076,8.492,10.387,9.682,1.086.559,2.437,1.254,4.364,2.476a5.7,5.7,0,0,1-3.056,10.508" transform="translate(-328.53 -242.441)" fill="#5ba7a7"/>
        <path id="패스_87" data-name="패스 87" d="M98.655,436.422a39.6,39.6,0,0,1-10.542-1.564,5.7,5.7,0,1,1,3.037-10.98c9.228,2.552,12.835-.012,12.871-.038a1.492,1.492,0,0,0-.24.211l7.852,8.255c-.9.859-4.868,4.117-12.978,4.117" transform="translate(-49.782 -251.285)" fill="#5ba7a7"/>
        <path id="패스_88" data-name="패스 88" d="M188.384,682.467c-31.552,0-60.346-10.252-75.92-28.045-10.717-12.242-14.086-27.23-9.489-42.2a5.7,5.7,0,1,1,10.891,3.344c-3.445,11.219-.966,22.062,7.17,31.356C128.9,655.9,141.768,663.1,157.275,667.2c16.612,4.391,35.159,5.082,53.634,2,42.72-7.125,55.016-20.264,58.544-27.462,3.516-7.175.868-12.786.3-13.837a5.7,5.7,0,0,1,10.03-5.4,26.5,26.5,0,0,1-.1,24.255c-7.978,16.279-30.487,27.613-66.9,33.686a148.675,148.675,0,0,1-24.4,2.027" transform="translate(-59.887 -360.729)" fill="#5ba7a7"/>
      </g>
    </g>
  </g>
</svg>
