<svg xmlns="http://www.w3.org/2000/svg" xmlns:xlink="http://www.w3.org/1999/xlink" width="1251.415" height="321.757" viewBox="0 0 1251.415 321.757">
  <defs>
    <clipPath id="clip-path">
      <rect id="사각형_64" data-name="사각형 64" width="302.543" height="321.738" fill="none"/>
    </clipPath>
    <clipPath id="clip-path-2">
      <rect id="사각형_62" data-name="사각형 62" width="359.415" height="321.738" fill="none"/>
    </clipPath>
    <clipPath id="clip-path-3">
      <rect id="사각형_63" data-name="사각형 63" width="202.742" height="321.757" fill="none"/>
    </clipPath>
  </defs>
  <g id="가위바위보_img" transform="translate(-347 -871)">
    <g id="rock" transform="translate(347 871)">
      <g id="그룹_112" data-name="그룹 112" clip-path="url(#clip-path)">
        <path id="패스_79" data-name="패스 79" d="M56.811,261.436c-12.478,40.695,42.762,71.027,103.431,60.911,70.181-11.705,67.941-40.307,62.923-49.62,0,0-.145-.264-.4-.7a114.087,114.087,0,0,0,23.3-11.912c21.7-14.774,59.7-67.5,59.057-87.667-.7-21.98-20.573-67.818-45.574-70.422.056-1,1.407-25.8.075-45.966C258.068,32.52,241.577,4.272,199.1,17.147c-16.2,4.91-20.3,10.4-30.65,9.341l1.477,1.479c-9.333-5.143-21.851-8.09-37.761,1.653-8.012,4.905-17.532,15.972-33.018,18.54S68.435,55.55,59.181,71.4s-28.154,10.471-40.1,42.33C5.6,149.654,18.963,218.342,56.811,261.436" transform="translate(-8.282 -8.256)" fill="#fff"/>
        <path id="패스_80" data-name="패스 80" d="M408.25,408.3a5.7,5.7,0,0,1-1.3-11.244c1.485-.348,3.179-.723,4.973-1.12,13.7-3.03,36.628-8.1,54.931-20.564,9.8-6.671,24.1-22.506,36.426-40.341,12.483-18.056,20.39-34.713,20.144-42.436-.493-15.46-12.436-47.3-29.315-60.061-5.7-4.309-11.29-5.821-16.618-4.494-5.427,1.352-11.412,2.575-17.747,3.869-21.215,4.332-47.618,9.724-54.8,21.816-2.2,3.708-2.5,8.055-.9,13.289,4.038,13.2,12.057,22.566,23.191,27.086,14.063,5.708,32.477,3.291,50.522-6.632a5.7,5.7,0,0,1,5.489,9.983,87.36,87.36,0,0,1-31.432,10.608,57.5,57.5,0,0,1-28.863-3.4c-14.421-5.853-24.726-17.717-29.8-34.309-2.557-8.36-1.885-15.91,2-22.443,9.762-16.425,37.684-22.127,62.319-27.158,6.213-1.269,12.081-2.467,17.271-3.761,8.707-2.17,17.783.064,26.244,6.461,20.087,15.186,33.242,50.3,33.831,68.785.457,14.326-13.688,37.023-22.159,49.277-13.264,19.185-28.356,35.769-39.385,43.28-20.115,13.694-44.383,19.062-58.882,22.27-1.758.389-3.418.757-4.833,1.088a5.734,5.734,0,0,1-1.305.151" transform="translate(-232.283 -128.222)" fill="#5ba7a7"/>
        <path id="패스_81" data-name="패스 81" d="M476.446,99.5q-.162,0-.326-.009a5.7,5.7,0,0,1-5.366-6.008c.014-.251,1.4-25.317.08-45.3-.887-13.417-6.721-25.1-15.607-31.246-9.326-6.452-21.969-7.326-37.577-2.595a107.975,107.975,0,0,0-13.866,5.344c-6.006,2.689-11.191,5.012-19.015,4.213a5.7,5.7,0,1,1,1.157-11.334c4.791.489,7.779-.849,13.2-3.277a119.364,119.364,0,0,1,15.216-5.848c23.792-7.212,38.888-1.736,47.364,4.129A44.9,44.9,0,0,1,476.75,25.8,60.826,60.826,0,0,1,482.2,47.431c1.366,20.7-.014,45.646-.074,46.7a5.7,5.7,0,0,1-5.682,5.375" transform="translate(-225.176 0.001)" fill="#5ba7a7"/>
        <path id="패스_82" data-name="패스 82" d="M164.128,322.236q-1.106,0-2.219-.088c-13.257-1.048-26.764-11.319-46.623-35.453a5.7,5.7,0,1,1,8.8-7.239c17.209,20.914,29.152,30.578,38.723,31.334,5.6.444,11.377-2.148,18.164-8.155,8.295-7.341-2.223-31.337-11.5-52.508L168.974,249c-6.522-14.883-32.942-32.949-42.572-38.655a5.7,5.7,0,0,1,5.8-9.8c1.542.913,37.873,22.594,47.2,43.887l.493,1.125c5.366,12.242,10.915,24.9,13.633,35.819,1.28,5.139,5.174,20.777-5.014,29.794-8.486,7.511-16.3,11.069-24.394,11.07" transform="translate(-67.608 -118.473)" fill="#5ba7a7"/>
        <path id="패스_83" data-name="패스 83" d="M277.288,257.056c-.435,0-.87,0-1.311-.013a5.7,5.7,0,0,1,.225-11.39c11.96.233,20.538-3.326,26.234-10.888,12.922-17.158,7.717-49.757,2.6-66.316-7.457-24.151-42.3-44.358-42.654-44.56A5.7,5.7,0,0,1,268.044,114c1.592.91,39.094,22.623,47.882,51.087,7.143,23.131,10.279,57.054-4.39,76.531-7.717,10.247-19.236,15.437-34.248,15.437" transform="translate(-153.925 -67.17)" fill="#5ba7a7"/>
        <path id="패스_84" data-name="패스 84" d="M100.453,306.679a5.689,5.689,0,0,1-1.593-.228c-16.952-4.927-32.594-14.2-46.494-27.558-12.41-11.929-23.1-26.76-31.783-44.08a197.934,197.934,0,0,1-19.291-63.1C-1.37,150.637.11,131.174,5.462,116.908c7.966-21.238,19.186-27.68,28.2-32.856,5.274-3.028,9.439-5.42,12.316-10.346,10.652-18.243,28.2-23.373,43.957-25.986,9.8-1.625,17.031-7.285,23.41-12.278a83.7,83.7,0,0,1,7.565-5.5c26.149-16.013,44.908-1.643,53.924,5.264,1.173.9,2.547,1.92,4,3,13.622,10.119,36.421,27.055,38.387,48.488,2.069,22.568-4.279,30.358-5.572,31.691l-8.175-7.935a1.6,1.6,0,0,0-.2.221c.042-.054,4.193-5.582,2.6-22.936-1.5-16.362-21.742-31.4-33.835-40.382-1.49-1.107-2.9-2.152-4.138-3.1-10.912-8.359-23.07-15.6-41.046-4.592a76.286,76.286,0,0,0-6.491,4.754c-7.083,5.545-15.9,12.446-28.569,14.547-13.811,2.29-27.729,6.356-35.982,20.492C51.41,87,45.272,90.524,39.336,93.932c-8.2,4.708-16.681,9.577-23.208,26.977-4.714,12.566-5.968,30.1-3.533,49.376a186.433,186.433,0,0,0,18.173,59.424c17.055,34.033,42.365,57.4,71.271,65.8a5.7,5.7,0,0,1-1.587,11.168" transform="translate(0 -13.437)" fill="#5ba7a7"/>
        <path id="패스_85" data-name="패스 85" d="M323.658,456.617a5.7,5.7,0,0,1-5.609-4.742c-2.584-15.187,4.252-30.028,19.769-42.915A104.993,104.993,0,0,1,361.1,394.5a5.7,5.7,0,0,1,4.469,10.479c-.555.239-40.891,17.915-36.285,44.989a5.7,5.7,0,0,1-5.622,6.653" transform="translate(-188.323 -233.71)" fill="#5ba7a7"/>
        <path id="패스_86" data-name="패스 86" d="M575.568,433.349a5.669,5.669,0,0,1-3.045-.887,39.7,39.7,0,0,0-3.476-1.967c-3.905-2.009-5.963-3.5-13.713-12.269a5.7,5.7,0,0,1,8.539-7.542c7.022,7.95,8.076,8.492,10.387,9.682,1.086.559,2.437,1.254,4.364,2.476a5.7,5.7,0,0,1-3.056,10.508" transform="translate(-328.53 -242.441)" fill="#5ba7a7"/>
        <path id="패스_87" data-name="패스 87" d="M98.655,436.422a39.6,39.6,0,0,1-10.542-1.564,5.7,5.7,0,1,1,3.037-10.98c9.228,2.552,12.835-.012,12.871-.038a1.492,1.492,0,0,0-.24.211l7.852,8.255c-.9.859-4.868,4.117-12.978,4.117" transform="translate(-49.782 -251.285)" fill="#5ba7a7"/>
        <path id="패스_88" data-name="패스 88" d="M188.384,682.467c-31.552,0-60.346-10.252-75.92-28.045-10.717-12.242-14.086-27.23-9.489-42.2a5.7,5.7,0,1,1,10.891,3.344c-3.445,11.219-.966,22.062,7.17,31.356C128.9,655.9,141.768,663.1,157.275,667.2c16.612,4.391,35.159,5.082,53.634,2,42.72-7.125,55.016-20.264,58.544-27.462,3.516-7.175.868-12.786.3-13.837a5.7,5.7,0,0,1,10.03-5.4,26.5,26.5,0,0,1-.1,24.255c-7.978,16.279-30.487,27.613-66.9,33.686a148.675,148.675,0,0,1-24.4,2.027" transform="translate(-59.887 -360.729)" fill="#5ba7a7"/>
      </g>
    </g>
    <g id="paper" transform="translate(1239.001 871)">
      <g id="그룹_108" data-name="그룹 108" transform="translate(-0.001 0)" clip-path="url(#clip-path-2)">
        <path id="패스_64" data-name="패스 64" d="M312.919,150.586c-23.444,21.153-36.685,30.825-51.093,24.062-6.055-2.843-15.457-10.743-19.6-21.826-6.734-18,8.213-77.1,8.942-97.668,1.4-39.706-47.1-41.711-46.564-.815.163,12.377.578,66.318-1.228,75.353s-12.839,9.008-16.306-.393c-6.614-17.937-12.807-65.5-18.785-93.284-7.856-36.521-64.007-24.853-50,14.958,14.84,42.185,32.341,86.4,32.914,91.554s-3.787,20.1-13.968,7.979S102.162,99.734,88.773,73.773c-14.191-27.512-54.436-1.628-34.6,27.69,24.433,36.121,45.773,55,52.914,66.852s-4.271,13.928-12.2,11.2-32.056-17.733-50.3-31.1C20.388,130.695.788,166.239,25.234,180.738c23.6,13.993,57.443,33.458,57.443,33.458,9.353,7.675,15.44,15.593,22.129,27.454,12.073,21.41,22.507,34.131,32.826,42.241-.082,1.629-.06,2.762-.06,2.762s-.984,26.669,37.859,37.621c37.19,10.484,89.66-7.6,91.971-41.512,0,0,.01-.488.012-1.288,12.2-9.483,24.631-23.945,34.027-46.444,14.017-33.557,36.972-48.463,53.4-60.9,27.523-20.837-5.022-56.843-41.922-23.546" transform="translate(-9.848 -9.854)" fill="#fff"/>
        <path id="패스_65" data-name="패스 65" d="M197.765,327.078a84.2,84.2,0,0,1-22.727-2.988c-20.114-5.671-29.365-15.63-33.584-22.986-4.578-7.981-4.385-14.716-4.383-14.783,0,0-.021-1.112.056-2.687-11.028-8.685-21.453-22.11-32.8-42.237-7.011-12.433-13.206-20.119-22.094-27.412-.318-.181-34.1-19.612-57.424-33.446-7.514-4.456-11.628-11.472-11.285-19.247.316-7.18,4.425-13.692,10.466-16.59,6.183-2.966,13.4-1.805,20.329,3.268,18.564,13.6,42.518,28.409,50.258,31.075,4.575,1.575,10.764,1.612,13.22-1.425,1.712-2.117,1.3-5.421-1.191-9.554-2.861-4.749-8.1-10.738-14.738-18.32-9.937-11.354-23.546-26.9-38.172-48.525-8.353-12.349-5.256-22.3-2.666-27.133C55.038,66.605,63.036,61.6,70.968,61.6h.148c7.359.058,13.551,4.239,17.437,11.772,13.47,26.118,38.307,64.649,48.437,76.7,3.251,3.869,6.15,5.3,8.617,4.239,3.811-1.633,5.462-8.766,5.09-12.105-.318-2.86-6.072-18.339-13.359-37.937-5.786-15.565-12.988-34.936-19.548-53.584-4.038-11.478-2.577-21.747,4.114-28.914,6.556-7.023,17.5-9.933,27.235-7.244s16.628,10.385,18.937,21.12c2.191,10.183,4.366,22.761,6.668,36.077,3.9,22.533,7.925,45.834,12.111,57.187,1.912,5.184,6.065,7.246,9.327,6.992,3.371-.264,5.937-2.784,6.694-6.577,1.7-8.492,1.446-58.48,1.225-75.322-.164-12.566,4.463-22.479,12.693-27.2a21.348,21.348,0,0,1,21.627.363c8.411,5.074,12.982,15.153,12.54,27.652-.252,7.1-2.152,18.526-4.353,31.758-4.008,24.1-9,54.092-4.6,65.853,3.918,10.481,12.868,18.618,19.525,21.744,13.756,6.458,26.282-1.8,50.931-24.038l.1.11-.1-.11c6.96-6.28,14.119-10.446,21.28-12.384a29.426,29.426,0,0,1,17.564.282c7.205,2.563,12.335,8.391,13.387,15.209,1.142,7.4-2.547,14.933-10.12,20.667-1.418,1.073-2.861,2.147-4.388,3.285-16.115,12-36.171,26.928-48.963,57.552-8.2,19.635-19.645,35.267-34.016,46.459,0,.759-.012,1.219-.012,1.219-.778,11.408-7.255,21.711-18.731,29.8-13.587,9.577-32.446,14.839-50.7,14.84M31.061,143.39a15.922,15.922,0,0,0-6.945,1.578c-5.945,2.852-9.987,9.264-10.3,16.336-.338,7.663,3.723,14.58,11.14,18.979,23.327,13.833,57.1,33.263,57.441,33.458,8.939,7.333,15.153,15.042,22.184,27.51,11.352,20.129,21.77,33.538,32.788,42.2l.061.047,0,.077c-.08,1.6-.06,2.74-.059,2.752,0,.075-.189,6.739,4.353,14.649,4.193,7.3,13.392,17.192,33.4,22.832,23.73,6.69,53.822,1.834,73.178-11.809,11.4-8.036,17.834-18.262,18.605-29.571,0,0,.009-.485.012-1.278v-.072l.057-.044c14.357-11.164,25.79-26.77,33.981-46.384,12.823-30.7,32.916-45.657,49.06-57.676,1.527-1.137,2.97-2.211,4.387-3.283,7.484-5.666,11.131-13.1,10.006-20.385-1.036-6.71-6.091-12.448-13.193-14.975-11.487-4.086-25.536.3-38.545,12.043-11.978,10.808-21,18.345-28.965,22.521-8.371,4.389-15.245,4.872-22.29,1.565-6.71-3.15-15.73-11.35-19.677-21.908-4.426-11.835.569-41.871,4.584-66.005,2.2-13.222,4.1-24.641,4.349-31.72.438-12.388-4.08-22.371-12.4-27.387a21.05,21.05,0,0,0-21.326-.36c-8.135,4.663-12.707,14.481-12.545,26.936.009.649.8,65.233-1.231,75.384-.785,3.929-3.453,6.539-6.962,6.814-3.378.265-7.663-1.855-9.629-7.185-4.2-11.379-8.227-34.693-12.125-57.239-2.3-13.313-4.476-25.888-6.666-36.065-2.285-10.623-9.111-18.239-18.726-20.9-9.631-2.661-20.457.216-26.94,7.16-6.612,7.082-8.051,17.244-4.051,28.613,6.559,18.646,13.76,38.016,19.546,53.58,7.578,20.384,13.053,35.112,13.376,38.008.38,3.417-1.332,10.724-5.269,12.411-2.6,1.114-5.616-.339-8.961-4.32-10.14-12.067-35-50.627-48.473-76.759C84.457,66.083,78.357,61.959,71.114,61.9h-.146c-7.826,0-15.718,4.937-19.677,12.325C48.732,79,45.674,88.834,53.94,101.053c14.616,21.608,28.218,37.149,38.15,48.5,6.646,7.593,11.894,13.59,14.769,18.362,3.235,5.369,2.42,8.344,1.167,9.894-2.541,3.141-8.876,3.127-13.548,1.519-7.762-2.673-31.754-17.5-50.337-31.116-4.36-3.194-8.834-4.819-13.08-4.819" transform="translate(-9.496 -9.527)" fill="#5ca7a7"/>
        <path id="패스_66" data-name="패스 66" d="M199.07,295.626a4.154,4.154,0,0,1-.035-8.307c9.558-.082,26.307-3.366,32.806-5.9,25.167-9.8,43.981-29.262,55.92-57.847a119.708,119.708,0,0,1,24.159-37.121c8.9-9.343,18.1-16.186,26.2-22.223,1.521-1.132,2.957-2.2,4.361-3.264,6.365-4.819,9.371-10.708,8.465-16.581-.823-5.333-4.777-9.749-10.578-11.812-4.757-1.692-17.644-3.985-34.52,11.243-12.21,11.017-21.452,18.723-29.789,23.095-9.459,4.96-17.674,5.483-25.852,1.643-6.341-2.977-15.463-11.05-20.307-24.008-4.87-13.022-.4-43,3.547-69.452,1.79-12,3.481-23.336,3.715-29.941.385-10.892-3.428-19.573-10.463-23.816a17.043,17.043,0,0,0-17.265-.315c-6.836,3.918-10.674,12.451-10.531,23.409.008.653.835,65.5-1.308,76.221-1.133,5.674-5.286,9.608-10.577,10.022-.309.024-.619.036-.926.036-5.511,0-10.566-3.846-12.772-9.829C169,109.158,164.939,85.661,161.01,62.938c-2.295-13.272-4.462-25.807-6.635-35.9-2.684-12.48-11.1-16.558-15.877-17.878-8.232-2.275-17.453.15-22.945,6.033-5.544,5.938-6.681,14.657-3.2,24.551C118.9,58.351,126.094,77.7,131.875,93.251c8.932,24.026,13.241,35.718,13.6,38.961.475,4.272-1.335,13.821-7.672,16.536-3.035,1.3-7.859,1.414-13.6-5.426-10.266-12.218-35.38-51.157-48.966-77.5-4-7.747-9.627-9.411-13.648-9.443h-.117c-6.388,0-12.864,4.091-16.144,10.212-3.681,6.868-2.815,14.926,2.437,22.69,14.476,21.4,27.984,36.834,37.846,48.1,6.776,7.742,12.128,13.857,15.186,18.933,4.432,7.356,2.909,11.934.85,14.479-3.9,4.823-12.048,4.826-17.966,2.787-9.078-3.126-34.375-19.2-51.4-31.672-5.585-4.091-11.241-5.107-15.926-2.86a14.98,14.98,0,0,0-8.029,12.9c-.159,3.608.822,10.4,9.182,15.358,23.3,13.819,57.056,33.236,57.394,33.43a4.186,4.186,0,0,1,.564.39c9.335,7.661,15.815,15.687,23.112,28.624,23.481,41.635,40.382,48.963,60.036,54.216A4.154,4.154,0,1,1,156.467,292c-10.249-2.739-21.266-6.525-32.379-15.6-11.058-9.029-21.464-22.553-32.749-42.563C84.663,222,78.787,214.656,70.456,207.768,67.03,205.8,35.438,187.6,13.268,174.455,4.441,169.221-.386,160.885.024,151.586c.38-8.636,5.379-16.5,12.736-20.025,4.389-2.105,13.4-4.431,24.428,3.648,17.98,13.171,41.888,28,49.2,30.519,4.079,1.4,8,.836,8.8-.157.343-.423.224-2.1-1.507-4.968-2.678-4.446-7.816-10.317-14.321-17.749-10.006-11.432-23.71-27.09-38.476-48.919C33.918,83.642,32.869,72.245,38,62.666c4.76-8.883,13.954-14.6,23.462-14.6h.187c8.789.069,16.431,5.151,20.965,13.942,13.361,25.907,37.94,64.059,47.943,75.964,2.436,2.9,3.818,3.2,3.973,3.134,1.339-.574,2.972-5.422,2.687-7.981-.355-2.614-6.561-19.309-13.132-36.984-5.792-15.58-13-34.969-19.572-53.651-6.149-17.479.471-28.164,4.965-32.977A30.028,30.028,0,0,1,123.92,1.064a32.391,32.391,0,0,1,16.791.084c11.212,3.1,19.152,11.9,21.786,24.138,2.208,10.262,4.39,22.879,6.7,36.236,3.865,22.356,7.863,45.473,11.922,56.484,1.188,3.22,3.5,4.523,5.257,4.385,1.576-.123,2.669-1.32,3.079-3.368,1.508-7.547,1.425-53.441,1.148-74.484-.183-14.064,5.177-25.262,14.706-30.725A25.355,25.355,0,0,1,231,14.222c9.693,5.848,14.969,17.228,14.474,31.223-.251,7.074-1.9,18.1-3.8,30.872-3.419,22.919-8.1,54.307-3.983,65.317,3.694,9.883,10.913,16.983,16.056,19.4,5.784,2.715,11.306,2.273,18.464-1.48,7.564-3.966,16.352-11.322,28.081-21.9,7.432-6.706,15.142-11.173,22.917-13.276a33.393,33.393,0,0,1,19.952.374c8.594,3.057,14.726,10.1,16,18.372,1.374,8.9-2.876,17.821-11.661,24.472-1.431,1.083-2.88,2.162-4.414,3.3-15.723,11.7-35.29,26.272-47.659,55.883-12.842,30.747-33.221,51.737-60.571,62.387-7.321,2.851-24.9,6.37-35.75,6.464Z" transform="translate(0 0.002)" fill="#5ca7a7"/>
        <path id="패스_67" data-name="패스 67" d="M613.268,687.518a4.156,4.156,0,0,1-3.85-2.591,55.119,55.119,0,0,1-2.331-35.4c2.461-9.428,7.338-18.875,14.5-28.081A124.125,124.125,0,0,1,648.424,596.2a4.154,4.154,0,0,1,4.557,6.946,117.784,117.784,0,0,0-24.965,23.573c-14.485,18.708-18.153,37.241-10.9,55.084a4.156,4.156,0,0,1-3.846,5.719" transform="translate(-425.648 -418.83)" fill="#5ca7a7"/>
        <path id="패스_68" data-name="패스 68" d="M481.231,958.814a86.92,86.92,0,0,1-23.466-3.083c-21.4-6.034-31.475-16.9-36.155-24.946-5.234-9-5.125-16.679-5.118-17l8.305.185v-.03a27.811,27.811,0,0,0,4.245,13.1c5.668,9.427,16.379,16.586,30.976,20.7,22.435,6.325,50.907,1.717,69.24-11.206,7.3-5.149,16.2-13.983,17.072-26.828a4.154,4.154,0,0,1,8.288.565c-.869,12.749-7.984,24.178-20.574,33.053-14.182,10-33.834,15.494-52.815,15.495" transform="translate(-292.92 -637.076)" fill="#5ca7a7"/>
        <path id="패스_69" data-name="패스 69" d="M384.585,656.413a28,28,0,0,1-4.94-.417,4.154,4.154,0,1,1,1.465-8.177c9.969,1.786,26.56-4.435,47.977-17.989a327.559,327.559,0,0,0,30.423-21.963,4.154,4.154,0,0,1,5.316,6.383A329.632,329.632,0,0,1,433.6,636.8c-20.579,13.033-37.032,19.61-49.018,19.61" transform="translate(-264.599 -426.84)" fill="#5ca7a7"/>
      </g>
    </g>
    <g id="scissors" transform="translate(843 871)">
      <g id="그룹_110" data-name="그룹 110" transform="translate(0 0)" clip-path="url(#clip-path-3)">
        <path id="패스_70" data-name="패스 70" d="M70.822,143.5S31.9,145.417,34.089,179.088c-.5.044-.8.073-.8.073S-.237,190.971,21.19,228.9c6.338,11.219,13.552,16.261,20.218,17.61.322.63.523,1.011.523,1.011s5.93,14.6,21.666,28.332l-.013.042C55.25,300.5,93.256,332,132.992,326.2c52.223-7.615,45.125-49.253,45.125-49.253s-.122-.351-.335-.931c12.837-11.91,21.009-24.728,23.108-29.366,4.681-10.348,13.935-29.276-1.756-58.176-5.265-9.7-13.362-14.25-22.863-16.467l-.164-2.865s.655-30.985,4.581-80.9c2.554-32.469,11.058-72.176-21.976-74.191-26.178-1.6-26.9,31.234-27.022,67.81-.071,21.421.4,42.278-1.631,59.082-.712,5.893-9.236,14.006-14.359-.229-5.184-14.4-15.727-61.021-23.466-99.555C85.175,6.019,32.4,11.323,45.418,57.206c11.957,42.129,23.395,78.243,25.4,86.29" transform="translate(-9.597 -9.57)" fill="#fff"/>
        <path id="패스_71" data-name="패스 71" d="M122.959,326.714a71.865,71.865,0,0,1-26.117-4.991c-10.591-4.138-19.94-10.638-26.324-18.3-7.728-9.277-10.374-19.17-7.457-27.866C47.549,261.983,41.5,247.4,41.432,247.231c0,0-.186-.352-.483-.931-7.6-1.57-14.6-7.679-20.25-17.672-7.1-12.568-8.947-23.615-5.488-32.835,4.658-12.417,17.543-17.08,17.672-17.126l.037-.008s.239-.023.648-.06c-.558-9.081,1.835-16.687,7.116-22.608,10.055-11.275,27.556-12.841,29.585-12.986-.9-3.562-3.482-12.117-7.027-23.878-4.851-16.1-11.5-38.145-18.329-62.223-3.985-14.039-2.155-25.7,5.152-32.847,5.928-5.795,14.87-7.772,23.338-5.159,9.644,2.976,16.435,10.953,18.632,21.887C99.792,79.408,110.342,126,115.5,140.317c2.476,6.879,5.5,8.04,7.615,7.8,3.208-.363,6.045-4.278,6.439-7.537,1.667-13.8,1.647-30.255,1.626-47.678,0-3.72-.009-7.566,0-11.386.047-14.3.206-27.005,1.677-37.788,1.691-12.4,4.856-20.4,9.96-25.187,4-3.753,9.09-5.387,15.552-4.993,7.864.479,13.677,3.047,17.771,7.85,9.7,11.372,7.544,33.26,5.464,54.427-.393,4-.8,8.137-1.11,12.084-3.881,49.341-4.574,80.583-4.58,80.892l.157,2.734c10.859,2.56,18.123,7.811,22.85,16.519,6.654,12.256,9.546,24.193,8.6,35.479-.8,9.55-4.1,16.819-6.512,22.126l-.323.712c-2.391,5.283-10.763,17.908-23.068,29.345.191.522.3.835.3.835.033.184,2.59,16.025-7.442,29.825-7.62,10.483-20.342,17.09-37.81,19.637a67.312,67.312,0,0,1-9.7.7M32.971,178.971c-.543.2-12.939,4.867-17.465,16.936-3.423,9.128-1.583,20.084,5.469,32.565,5.618,9.944,12.572,16.007,20.112,17.533l.075.015.035.068c.321.628.522,1.008.522,1.009.066.16,6.105,14.738,21.63,28.287l.078.068-.044.138c-2.915,8.607-.294,18.416,7.378,27.627,11.27,13.53,35.433,26.338,61.854,22.484,17.381-2.534,30.031-9.1,37.6-19.51,9.933-13.664,7.429-29.336,7.392-29.559,0,0-.123-.346-.328-.9l-.036-.1.077-.071c12.313-11.424,20.686-24.044,23.072-29.315l.323-.712c4.622-10.185,13.227-29.143-2.073-57.324-4.7-8.653-11.931-13.861-22.76-16.389l-.115-.027-.171-2.982c.006-.323.7-31.573,4.581-80.923.311-3.951.717-8.089,1.111-12.09,2.074-21.1,4.218-42.921-5.389-54.191-4.036-4.734-9.777-7.266-17.55-7.74-6.37-.388-11.381,1.217-15.317,4.907-4.979,4.669-8.206,12.846-9.864,25-1.468,10.763-1.627,23.462-1.674,37.746-.013,3.819-.008,7.665,0,11.385.021,17.433.041,33.9-1.628,47.716-.409,3.382-3.268,7.423-6.717,7.813-2.223.252-5.4-.934-7.947-8.007-5.159-14.333-15.713-60.943-23.473-99.578C89.553,30.03,82.841,22.14,73.31,19.2c-8.357-2.579-17.179-.631-23.024,5.083-7.22,7.058-9.021,18.613-5.069,32.535,6.833,24.076,13.477,46.121,18.328,62.218,3.608,11.974,6.215,20.625,7.078,24.077l.046.187-.192.009c-.189.009-19.016,1.072-29.558,12.894-5.251,5.889-7.614,13.469-7.025,22.53l.01.154-.154.014c-.425.038-.7.064-.779.071" transform="translate(-9.243 -9.225)" fill="#5ba7a7"/>
        <path id="패스_72" data-name="패스 72" d="M154.584,796.166a4.443,4.443,0,0,1-1.043-.125,98.276,98.276,0,0,1-50.7-30.027c-10.043-11.258-14.1-21.093-14.267-21.506a4.427,4.427,0,0,1,8.2-3.331c.033.081,3.783,9.065,12.916,19.217a88.447,88.447,0,0,0,45.929,27.04,4.428,4.428,0,0,1-1.036,8.732" transform="translate(-60.338 -504.896)" fill="#5ba7a7"/>
        <path id="패스_73" data-name="패스 73" d="M299.381,624.2a4.428,4.428,0,0,1-.833-8.776c18.4-3.544,33.268-15.177,42.5-24.312,11.673-11.546,18.052-22.437,19.367-25.343l.325-.716c4.619-10.177,12.349-27.209-1.938-53.522-8.429-15.524-25.334-15.96-44.909-16.465-9.044-.233-18.4-.475-27.218-2.36a19.175,19.175,0,0,0-19.735,7.151,23.356,23.356,0,0,0-2.368,24.813c6.995,14.364,37.08,21.135,48.082,22.532a4.427,4.427,0,0,1-1.11,8.785,139.152,139.152,0,0,1-22.967-5.286c-16.686-5.407-27.441-12.86-31.966-22.153a32.848,32.848,0,0,1-3.154-18.2,31.807,31.807,0,0,1,6.51-15.951,28.1,28.1,0,0,1,28.56-10.352c8.018,1.714,16.954,1.944,25.595,2.167,20.448.527,41.592,1.073,52.462,21.091,16.389,30.185,7.171,50.5,2.219,61.407l-.32.707c-2.309,5.1-9.861,16.765-21.208,27.988-10.107,10-26.476,22.746-47.055,26.711a4.435,4.435,0,0,1-.842.081" transform="translate(-173.159 -330.508)" fill="#5ba7a7"/>
        <path id="패스_74" data-name="패스 74" d="M229.912,164h-.1a4.428,4.428,0,0,1-4.333-4.52c.007-.311.7-31.684,4.594-81.155.314-3.992.723-8.151,1.118-12.173,1.987-20.213,4.041-41.115-4.389-51-3.244-3.8-8.007-5.849-14.561-6.248-5.135-.312-9.1.917-12.136,3.76C190.086,22.059,190,48.754,189.92,72.306c-.013,3.81-.008,7.651,0,11.365.021,17.566.041,34.158-1.659,48.233-.61,5.051-4.789,10.9-10.476,11.543-3.072.347-8.77-.595-12.444-10.8-5.229-14.527-15.851-61.395-23.641-100.183-1.855-9.235-7.5-15.944-15.488-18.409-6.859-2.116-14.056-.562-18.781,4.056-6.049,5.913-7.451,15.97-3.946,28.316,6.773,23.865,13.114,44.965,17.743,60.37,3.506,11.667,6.039,20.1,6.934,23.681a89.871,89.871,0,0,1,2.083,19.158,4.427,4.427,0,0,1-8.855-.052,82.093,82.093,0,0,0-1.82-16.961c-.844-3.381-3.352-11.727-6.823-23.277-4.638-15.434-10.99-36.571-17.782-60.5-5.98-21.068,1.365-32.266,6.275-37.066,7.048-6.889,17.617-9.26,27.581-6.185,11.022,3.4,19.082,12.794,21.559,25.126,7.727,38.47,18.208,84.8,23.292,98.927,1.423,3.955,2.835,4.966,3.108,5,.58.019,2.455-1.864,2.69-3.807,1.636-13.541,1.616-29.871,1.6-47.16,0-3.724-.009-7.576,0-11.406.088-26.58.179-54.065,12.987-66.075,4.838-4.537,11.139-6.6,18.732-6.14,8.956.546,15.941,3.689,20.76,9.342,10.872,12.753,8.631,35.559,6.464,57.614-.392,3.98-.8,8.1-1.1,12-3.87,49.193-4.562,80.339-4.568,80.648A4.428,4.428,0,0,1,229.912,164" transform="translate(-63.399 0.001)" fill="#5ba7a7"/>
        <path id="패스_75" data-name="패스 75" d="M108.2,509.75a34.48,34.48,0,0,1-6.916-.708A37.869,37.869,0,0,1,81.868,498.2c-6.487-6.53-11.631-15.612-15.287-26.993-5.39-16.778-4.5-30.2,2.635-39.9,10.853-14.745,31.906-14.727,32.8-14.717a4.427,4.427,0,0,1-.04,8.854h-.035c-.345,0-17.525.1-25.616,11.148-5.332,7.278-5.772,18.013-1.309,31.907,5.794,18.036,15.756,29.353,28.05,31.867,8.207,1.679,15.719-.972,18.621-4.318a17.062,17.062,0,0,0,3.708-14.769c-1.166-6.337-5.1-12.9-11.391-18.975a4.427,4.427,0,0,1,6.154-6.367c15.629,15.107,18.932,33.557,8.219,45.912-3.631,4.188-11.069,7.9-20.169,7.9" transform="translate(-43.15 -284.846)" fill="#5ba7a7"/>
        <path id="패스_76" data-name="패스 76" d="M35.656,598.854a24.784,24.784,0,0,1-11.508-2.9c-6.218-3.244-11.739-9.08-16.408-17.345-7.751-13.719-9.692-25.977-5.769-36.435,5.351-14.262,19.645-19.44,20.252-19.653a4.427,4.427,0,0,1,2.957,8.347c-.187.068-11.113,4.151-14.947,14.5-2.919,7.876-1.164,17.6,5.217,28.889,6.777,12,15.228,17.432,23.8,15.307,6.307-1.564,10.452-6.82,10.534-9.751a4.427,4.427,0,1,1,8.851.25c-.106,3.753-1.97,7.708-5.247,11.137a25.207,25.207,0,0,1-12.007,6.959,23.744,23.744,0,0,1-5.722.7" transform="translate(0 -357.103)" fill="#5ba7a7"/>
        <path id="패스_77" data-name="패스 77" d="M245.643,705.848a4.427,4.427,0,0,1-4.415-4.162c-.677-11.263,3.762-21.577,12.837-29.825a51.617,51.617,0,0,1,13.8-8.988,4.427,4.427,0,0,1,3.339,8.2,43.378,43.378,0,0,0-11.375,7.517c-6.99,6.438-10.274,14.03-9.761,22.564a4.427,4.427,0,0,1-4.154,4.685c-.091.005-.181.008-.27.008" transform="translate(-164.895 -453.021)" fill="#5ba7a7"/>
        <path id="패스_78" data-name="패스 78" d="M218.331,888a76.155,76.155,0,0,1-27.673-5.283c-11.251-4.4-21.213-11.339-28.051-19.547-8.732-10.483-11.644-21.856-8.2-32.027a4.427,4.427,0,1,1,8.387,2.84c-2.418,7.141-.068,15.494,6.617,23.52,9.233,11.085,27.767,21.646,48.9,21.647a62.633,62.633,0,0,0,9.055-.655c16.142-2.354,27.814-8.307,34.691-17.7,8.91-12.165,6.729-26.306,6.706-26.447a4.427,4.427,0,0,1,8.732-1.473c.123.719,2.875,17.788-8.2,33.027-8.322,11.449-22,18.632-40.647,21.351a71.542,71.542,0,0,1-10.316.743" transform="translate(-104.613 -566.245)" fill="#5ba7a7"/>
      </g>
    </g>
  </g>
</svg>
