<svg id="scissors" xmlns="http://www.w3.org/2000/svg" xmlns:xlink="http://www.w3.org/1999/xlink" width="202.742" height="321.757" viewBox="0 0 202.742 321.757">
  <defs>
    <clipPath id="clip-path">
      <rect id="사각형_63" data-name="사각형 63" width="202.742" height="321.757" fill="none"/>
    </clipPath>
  </defs>
  <g id="그룹_110" data-name="그룹 110" transform="translate(0 0)" clip-path="url(#clip-path)">
    <path id="패스_70" data-name="패스 70" d="M70.822,143.5S31.9,145.417,34.089,179.088c-.5.044-.8.073-.8.073S-.237,190.971,21.19,228.9c6.338,11.219,13.552,16.261,20.218,17.61.322.63.523,1.011.523,1.011s5.93,14.6,21.666,28.332l-.013.042C55.25,300.5,93.256,332,132.992,326.2c52.223-7.615,45.125-49.253,45.125-49.253s-.122-.351-.335-.931c12.837-11.91,21.009-24.728,23.108-29.366,4.681-10.348,13.935-29.276-1.756-58.176-5.265-9.7-13.362-14.25-22.863-16.467l-.164-2.865s.655-30.985,4.581-80.9c2.554-32.469,11.058-72.176-21.976-74.191-26.178-1.6-26.9,31.234-27.022,67.81-.071,21.421.4,42.278-1.631,59.082-.712,5.893-9.236,14.006-14.359-.229-5.184-14.4-15.727-61.021-23.466-99.555C85.175,6.019,32.4,11.323,45.418,57.206c11.957,42.129,23.395,78.243,25.4,86.29" transform="translate(-9.597 -9.57)" fill="#fff"/>
    <path id="패스_71" data-name="패스 71" d="M122.959,326.714a71.865,71.865,0,0,1-26.117-4.991c-10.591-4.138-19.94-10.638-26.324-18.3-7.728-9.277-10.374-19.17-7.457-27.866C47.549,261.983,41.5,247.4,41.432,247.231c0,0-.186-.352-.483-.931-7.6-1.57-14.6-7.679-20.25-17.672-7.1-12.568-8.947-23.615-5.488-32.835,4.658-12.417,17.543-17.08,17.672-17.126l.037-.008s.239-.023.648-.06c-.558-9.081,1.835-16.687,7.116-22.608,10.055-11.275,27.556-12.841,29.585-12.986-.9-3.562-3.482-12.117-7.027-23.878-4.851-16.1-11.5-38.145-18.329-62.223-3.985-14.039-2.155-25.7,5.152-32.847,5.928-5.795,14.87-7.772,23.338-5.159,9.644,2.976,16.435,10.953,18.632,21.887C99.792,79.408,110.342,126,115.5,140.317c2.476,6.879,5.5,8.04,7.615,7.8,3.208-.363,6.045-4.278,6.439-7.537,1.667-13.8,1.647-30.255,1.626-47.678,0-3.72-.009-7.566,0-11.386.047-14.3.206-27.005,1.677-37.788,1.691-12.4,4.856-20.4,9.96-25.187,4-3.753,9.09-5.387,15.552-4.993,7.864.479,13.677,3.047,17.771,7.85,9.7,11.372,7.544,33.26,5.464,54.427-.393,4-.8,8.137-1.11,12.084-3.881,49.341-4.574,80.583-4.58,80.892l.157,2.734c10.859,2.56,18.123,7.811,22.85,16.519,6.654,12.256,9.546,24.193,8.6,35.479-.8,9.55-4.1,16.819-6.512,22.126l-.323.712c-2.391,5.283-10.763,17.908-23.068,29.345.191.522.3.835.3.835.033.184,2.59,16.025-7.442,29.825-7.62,10.483-20.342,17.09-37.81,19.637a67.312,67.312,0,0,1-9.7.7M32.971,178.971c-.543.2-12.939,4.867-17.465,16.936-3.423,9.128-1.583,20.084,5.469,32.565,5.618,9.944,12.572,16.007,20.112,17.533l.075.015.035.068c.321.628.522,1.008.522,1.009.066.16,6.105,14.738,21.63,28.287l.078.068-.044.138c-2.915,8.607-.294,18.416,7.378,27.627,11.27,13.53,35.433,26.338,61.854,22.484,17.381-2.534,30.031-9.1,37.6-19.51,9.933-13.664,7.429-29.336,7.392-29.559,0,0-.123-.346-.328-.9l-.036-.1.077-.071c12.313-11.424,20.686-24.044,23.072-29.315l.323-.712c4.622-10.185,13.227-29.143-2.073-57.324-4.7-8.653-11.931-13.861-22.76-16.389l-.115-.027-.171-2.982c.006-.323.7-31.573,4.581-80.923.311-3.951.717-8.089,1.111-12.09,2.074-21.1,4.218-42.921-5.389-54.191-4.036-4.734-9.777-7.266-17.55-7.74-6.37-.388-11.381,1.217-15.317,4.907-4.979,4.669-8.206,12.846-9.864,25-1.468,10.763-1.627,23.462-1.674,37.746-.013,3.819-.008,7.665,0,11.385.021,17.433.041,33.9-1.628,47.716-.409,3.382-3.268,7.423-6.717,7.813-2.223.252-5.4-.934-7.947-8.007-5.159-14.333-15.713-60.943-23.473-99.578C89.553,30.03,82.841,22.14,73.31,19.2c-8.357-2.579-17.179-.631-23.024,5.083-7.22,7.058-9.021,18.613-5.069,32.535,6.833,24.076,13.477,46.121,18.328,62.218,3.608,11.974,6.215,20.625,7.078,24.077l.046.187-.192.009c-.189.009-19.016,1.072-29.558,12.894-5.251,5.889-7.614,13.469-7.025,22.53l.01.154-.154.014c-.425.038-.7.064-.779.071" transform="translate(-9.243 -9.225)" fill="#5ba7a7"/>
    <path id="패스_72" data-name="패스 72" d="M154.584,796.166a4.443,4.443,0,0,1-1.043-.125,98.276,98.276,0,0,1-50.7-30.027c-10.043-11.258-14.1-21.093-14.267-21.506a4.427,4.427,0,0,1,8.2-3.331c.033.081,3.783,9.065,12.916,19.217a88.447,88.447,0,0,0,45.929,27.04,4.428,4.428,0,0,1-1.036,8.732" transform="translate(-60.338 -504.896)" fill="#5ba7a7"/>
    <path id="패스_73" data-name="패스 73" d="M299.381,624.2a4.428,4.428,0,0,1-.833-8.776c18.4-3.544,33.268-15.177,42.5-24.312,11.673-11.546,18.052-22.437,19.367-25.343l.325-.716c4.619-10.177,12.349-27.209-1.938-53.522-8.429-15.524-25.334-15.96-44.909-16.465-9.044-.233-18.4-.475-27.218-2.36a19.175,19.175,0,0,0-19.735,7.151,23.356,23.356,0,0,0-2.368,24.813c6.995,14.364,37.08,21.135,48.082,22.532a4.427,4.427,0,0,1-1.11,8.785,139.152,139.152,0,0,1-22.967-5.286c-16.686-5.407-27.441-12.86-31.966-22.153a32.848,32.848,0,0,1-3.154-18.2,31.807,31.807,0,0,1,6.51-15.951,28.1,28.1,0,0,1,28.56-10.352c8.018,1.714,16.954,1.944,25.595,2.167,20.448.527,41.592,1.073,52.462,21.091,16.389,30.185,7.171,50.5,2.219,61.407l-.32.707c-2.309,5.1-9.861,16.765-21.208,27.988-10.107,10-26.476,22.746-47.055,26.711a4.435,4.435,0,0,1-.842.081" transform="translate(-173.159 -330.508)" fill="#5ba7a7"/>
    <path id="패스_74" data-name="패스 74" d="M229.912,164h-.1a4.428,4.428,0,0,1-4.333-4.52c.007-.311.7-31.684,4.594-81.155.314-3.992.723-8.151,1.118-12.173,1.987-20.213,4.041-41.115-4.389-51-3.244-3.8-8.007-5.849-14.561-6.248-5.135-.312-9.1.917-12.136,3.76C190.086,22.059,190,48.754,189.92,72.306c-.013,3.81-.008,7.651,0,11.365.021,17.566.041,34.158-1.659,48.233-.61,5.051-4.789,10.9-10.476,11.543-3.072.347-8.77-.595-12.444-10.8-5.229-14.527-15.851-61.395-23.641-100.183-1.855-9.235-7.5-15.944-15.488-18.409-6.859-2.116-14.056-.562-18.781,4.056-6.049,5.913-7.451,15.97-3.946,28.316,6.773,23.865,13.114,44.965,17.743,60.37,3.506,11.667,6.039,20.1,6.934,23.681a89.871,89.871,0,0,1,2.083,19.158,4.427,4.427,0,0,1-8.855-.052,82.093,82.093,0,0,0-1.82-16.961c-.844-3.381-3.352-11.727-6.823-23.277-4.638-15.434-10.99-36.571-17.782-60.5-5.98-21.068,1.365-32.266,6.275-37.066,7.048-6.889,17.617-9.26,27.581-6.185,11.022,3.4,19.082,12.794,21.559,25.126,7.727,38.47,18.208,84.8,23.292,98.927,1.423,3.955,2.835,4.966,3.108,5,.58.019,2.455-1.864,2.69-3.807,1.636-13.541,1.616-29.871,1.6-47.16,0-3.724-.009-7.576,0-11.406.088-26.58.179-54.065,12.987-66.075,4.838-4.537,11.139-6.6,18.732-6.14,8.956.546,15.941,3.689,20.76,9.342,10.872,12.753,8.631,35.559,6.464,57.614-.392,3.98-.8,8.1-1.1,12-3.87,49.193-4.562,80.339-4.568,80.648A4.428,4.428,0,0,1,229.912,164" transform="translate(-63.399 0.001)" fill="#5ba7a7"/>
    <path id="패스_75" data-name="패스 75" d="M108.2,509.75a34.48,34.48,0,0,1-6.916-.708A37.869,37.869,0,0,1,81.868,498.2c-6.487-6.53-11.631-15.612-15.287-26.993-5.39-16.778-4.5-30.2,2.635-39.9,10.853-14.745,31.906-14.727,32.8-14.717a4.427,4.427,0,0,1-.04,8.854h-.035c-.345,0-17.525.1-25.616,11.148-5.332,7.278-5.772,18.013-1.309,31.907,5.794,18.036,15.756,29.353,28.05,31.867,8.207,1.679,15.719-.972,18.621-4.318a17.062,17.062,0,0,0,3.708-14.769c-1.166-6.337-5.1-12.9-11.391-18.975a4.427,4.427,0,0,1,6.154-6.367c15.629,15.107,18.932,33.557,8.219,45.912-3.631,4.188-11.069,7.9-20.169,7.9" transform="translate(-43.15 -284.846)" fill="#5ba7a7"/>
    <path id="패스_76" data-name="패스 76" d="M35.656,598.854a24.784,24.784,0,0,1-11.508-2.9c-6.218-3.244-11.739-9.08-16.408-17.345-7.751-13.719-9.692-25.977-5.769-36.435,5.351-14.262,19.645-19.44,20.252-19.653a4.427,4.427,0,0,1,2.957,8.347c-.187.068-11.113,4.151-14.947,14.5-2.919,7.876-1.164,17.6,5.217,28.889,6.777,12,15.228,17.432,23.8,15.307,6.307-1.564,10.452-6.82,10.534-9.751a4.427,4.427,0,1,1,8.851.25c-.106,3.753-1.97,7.708-5.247,11.137a25.207,25.207,0,0,1-12.007,6.959,23.744,23.744,0,0,1-5.722.7" transform="translate(0 -357.103)" fill="#5ba7a7"/>
    <path id="패스_77" data-name="패스 77" d="M245.643,705.848a4.427,4.427,0,0,1-4.415-4.162c-.677-11.263,3.762-21.577,12.837-29.825a51.617,51.617,0,0,1,13.8-8.988,4.427,4.427,0,0,1,3.339,8.2,43.378,43.378,0,0,0-11.375,7.517c-6.99,6.438-10.274,14.03-9.761,22.564a4.427,4.427,0,0,1-4.154,4.685c-.091.005-.181.008-.27.008" transform="translate(-164.895 -453.021)" fill="#5ba7a7"/>
    <path id="패스_78" data-name="패스 78" d="M218.331,888a76.155,76.155,0,0,1-27.673-5.283c-11.251-4.4-21.213-11.339-28.051-19.547-8.732-10.483-11.644-21.856-8.2-32.027a4.427,4.427,0,1,1,8.387,2.84c-2.418,7.141-.068,15.494,6.617,23.52,9.233,11.085,27.767,21.646,48.9,21.647a62.633,62.633,0,0,0,9.055-.655c16.142-2.354,27.814-8.307,34.691-17.7,8.91-12.165,6.729-26.306,6.706-26.447a4.427,4.427,0,0,1,8.732-1.473c.123.719,2.875,17.788-8.2,33.027-8.322,11.449-22,18.632-40.647,21.351a71.542,71.542,0,0,1-10.316.743" transform="translate(-104.613 -566.245)" fill="#5ba7a7"/>
  </g>
</svg>
