<svg id="share_icon" xmlns="http://www.w3.org/2000/svg" xmlns:xlink="http://www.w3.org/1999/xlink" width="30" height="31.852" viewBox="0 0 30 31.852">
  <defs>
    <clipPath id="clip-path">
      <rect id="사각형_59" data-name="사각형 59" width="30" height="31.852" fill="none"/>
    </clipPath>
  </defs>
  <g id="그룹_87" data-name="그룹 87" clip-path="url(#clip-path)">
    <path id="패스_63" data-name="패스 63" d="M26.106,17.727H28.25V28.51a3.346,3.346,0,0,1-3.342,3.342H3.342A3.346,3.346,0,0,1,0,28.51V6.944A3.346,3.346,0,0,1,3.342,3.6H14.125V5.746H3.342a1.2,1.2,0,0,0-1.2,1.2V28.51a1.2,1.2,0,0,0,1.2,1.2H24.908a1.2,1.2,0,0,0,1.2-1.2ZM11.749,21.582l2.141.122.26-4.558A10.613,10.613,0,0,1,18.033,9.31,10.725,10.725,0,0,1,24.6,7.05h1.291L22.5,10.442l1.517,1.517L30,5.979,24.021,0,22.5,1.517,25.9,4.907H24.6a12.879,12.879,0,0,0-7.891,2.715,12.755,12.755,0,0,0-4.7,9.4Z"/>
  </g>
</svg>
